<svg width="206" height="206" viewBox="0 0 206 206" fill="none" xmlns="http://www.w3.org/2000/svg">
    <path d="M18.1272 114.435C17.983 112.602 17.8718 110.766 17.7832 108.935" stroke="#27262D" stroke-width="1.0368"
          stroke-miterlimit="10"/>
    <path d="M122.393 180.382H70.0645" stroke="#E6EFF9" stroke-width="1.0368" stroke-miterlimit="10"/>
    <path d="M137.67 49.2937C137.67 49.2937 153.091 42.0116 166.174 56.2195C170.449 60.8627 173.366 67.0242 173.572 73.3813C173.665 76.4833 173.165 79.5743 172.099 82.4886C171.013 85.4632 169.064 87.4326 167.567 90.0817C165.27 94.1667 170.072 94.8898 172.649 96.8694C174.361 98.1963 175.986 99.6329 177.512 101.171C180.952 104.606 183.979 108.431 186.531 112.569C191.585 120.81 194.628 130.125 195.414 139.761C196.19 149.261 195.595 159.578 190.723 168.018C188.379 172.082 184.848 176.068 180.506 177.963C174.738 180.479 168.259 180.384 162.095 180.384H148.979"
          stroke="#E6EFF9" stroke-width="1.0368" stroke-miterlimit="10"/>
    <path d="M73.388 144.229C72.8709 147.908 72.1005 152.129 71.2497 156.354L70.2465 156.64C67.0358 157.542 63.6261 157.442 60.4739 156.354L61.7881 151.888L53.7871 128.61C53.7871 128.61 59.9032 126.632 64.9255 125.164L65.5023 125.139C68.2462 125.718 73.9009 127.891 74.0781 136.03C74.0905 136.421 74.0781 136.833 74.0781 137.283C74.8753 139.909 74.5581 142.224 73.388 144.229Z"
          fill="#755EC6"/>
    <path d="M54.5549 55.62C54.476 55.4192 54.3215 55.2574 54.1248 55.1693C53.9281 55.0809 53.7045 55.0735 53.5022 55.1483C53.3887 55.1825 53.2841 55.2408 53.1953 55.3192C52.8781 55.5767 52.806 56.0279 52.7957 56.4564C52.7668 57.4349 52.7112 58.4154 52.6391 59.3898C52.6391 59.4557 52.6288 59.5299 52.6288 59.5958C52.5835 60.3807 52.6165 61.3324 52.2827 62.0163C52.2613 62.0684 52.2246 62.1129 52.1777 62.144C52.0664 62.1955 51.949 62.0843 51.8769 61.9833C51.6709 61.6826 51.4649 61.388 51.2589 61.0811C51.0962 60.8359 50.9128 60.5702 50.6286 60.4919C50.2063 60.3745 49.8046 60.7473 49.5718 61.1264C48.8199 62.3624 48.7478 64.3874 49.9117 65.4235C51.0756 66.4597 48.4697 68.4971 46.6033 69.354C46.2908 69.5297 45.9633 69.6772 45.6248 69.7949C45.6083 69.7949 46.2984 69.9494 46.282 69.9555C44.8297 70.4611 43.3168 70.7721 41.7829 70.8805C39.9619 71.002 38.1862 70.7734 36.8945 69.9823C36.9502 69.7763 37.391 68.3343 37.4178 68.1283C37.5125 67.4094 37.5805 66.6966 37.6238 65.9736C37.702 64.616 37.6959 63.2564 37.6444 61.903C37.4569 57.0332 38.3242 52.942 40.3347 52.3178C40.4934 52.2702 40.6456 52.2031 40.7879 52.118C41.6943 51.6174 42.1784 50.5606 41.7623 49.5636C41.7335 49.4956 41.7005 49.4297 41.6717 49.3576C41.6391 49.2865 41.6018 49.2177 41.5604 49.1516C45.4868 47.9321 48.1524 48.7787 50.8469 50.2537C51.3596 50.6634 51.8415 51.1102 52.2889 51.5906C53.3434 52.7356 54.119 54.109 54.5549 55.6035V55.62Z"
          fill="#755EC6"/>
    <path d="M148.938 102.442H135.548V70.4376C135.548 70.4376 133.076 98.2455 126.303 114H84.833C89.7214 110.894 93.6416 106.201 96.2516 101.15C97.2816 99.1519 98.9296 96.1855 101.669 96.9642C102.32 97.1475 103.278 97.265 103.762 96.6696C103.929 96.4412 104.024 96.1676 104.034 95.8848C104.269 92.9678 101.245 90.5123 98.7524 89.7377C96.2598 88.9632 93.347 89.3257 91.3632 91.1365C89.9336 92.4446 89.0375 94.1811 87.991 95.79C87.3629 96.7434 86.6182 97.6147 85.7744 98.3835C86.8497 91.8533 87.8077 85.6115 87.9457 83.3146C90.568 81.2443 92.4941 77.868 93.1781 74.881C93.93 71.618 94.5933 68.427 95.7613 65.372L105.322 65.405C105.682 65.405 106.027 65.262 106.282 65.0074C106.536 64.7528 106.679 64.4075 106.679 64.0475V48.169C106.68 47.8122 106.539 47.4698 106.288 47.2164C106.036 46.9633 105.695 46.8199 105.338 46.8176L98.8286 46.762C101.194 46.2676 103.593 45.9473 106.006 45.8041C106.055 45.8041 106.1 45.8041 106.144 45.8041C107.732 45.699 110.515 45.6537 112.118 45.6372C110.208 46.6672 109.028 48.855 109.234 50.7872C109.27 51.1988 109.375 51.6014 109.545 51.9779C111.176 55.5623 115.473 56.6212 119.021 55.5788C122.968 54.4273 125.868 50.7975 125.695 46.6219C128.167 46.9845 130.614 47.4445 133.037 48.0021C136.718 48.8488 140.309 49.99 143.22 52.4785C145.757 54.6394 147.908 57.4225 148.903 60.5681C153.176 74.0179 151.861 89.027 148.938 102.442Z"
          fill="#27262D"/>
    <path d="M88.0525 83.3147C87.7518 88.2298 86.9772 93.1408 86.1367 98.0395" stroke="#27262D" stroke-width="1.0368"
          stroke-miterlimit="10"/>
    <path d="M95.8688 65.372C94.6987 68.427 94.0374 71.618 93.2855 74.881C92.5954 77.8577 90.6735 81.2443 88.0531 83.3146C85.8531 85.0512 83.1586 85.869 80.2746 84.7731C76.4059 83.2982 75.0484 79.034 74.5746 75.2745C73.9588 70.5931 73.9213 65.8539 74.4633 61.1635C75.0092 62.3768 77.2402 66.0683 84.1597 65.0981C84.3455 65.2369 84.5689 65.3166 84.8004 65.3267L95.8688 65.372Z"
          fill="#27262D"/>
    <path d="M91.9838 54.8104C93.5947 54.3984 94.5753 55.9475 94.3363 57.1259C93.947 59.0478 91.1824 59.8039 89.5365 59.8389C88.2181 59.8657 85.0045 59.5175 83.6943 59.3651"
          stroke="#27262D" stroke-width="1.0368" stroke-miterlimit="10"/>
    <path d="M83.1515 55.7621C85.1446 56.3381 87.2549 56.3729 89.2656 55.8631C90.9569 55.4284 92.9551 54.6271 93.8409 53.0182C94.3579 52.083 93.9459 50.5915 92.8665 50.2619C91.6202 49.885 90.4666 51.1251 89.3377 51.4382C88.6095 51.6366 87.8661 51.7744 87.115 51.8502C86.909 51.8729 86.7153 51.8893 86.5155 51.9058C85.4643 51.9901 84.4075 51.9824 83.3575 51.8832C83.2459 51.8832 83.1369 51.8479 83.0465 51.7826C82.9558 51.7171 82.8883 51.6248 82.853 51.5187C82.818 51.4129 82.8172 51.2983 82.8508 51.1918C82.8844 51.0853 82.9507 50.992 83.0403 50.9253L83.2298 50.7872"
          stroke="#27262D" stroke-width="1.0368" stroke-miterlimit="10"/>
    <path d="M95.8683 65.372C94.6983 68.427 94.037 71.618 93.2851 74.881C92.0161 80.3585 86.6045 87.1833 80.2741 84.769C76.4055 83.294 75.0479 79.0298 74.5741 75.2703C73.8325 69.4488 73.8943 63.4686 74.9861 57.6965C75.8925 52.942 77.5014 47.9486 82.1281 45.6105L84.2994 44.5248C84.8171 44.2632 85.4167 44.2146 85.97 44.3893C86.5231 44.5642 86.986 44.9486 87.2596 45.4601C87.4263 45.7781 87.5146 46.1312 87.5171 46.4901C87.5192 46.5426 87.515 46.5951 87.5047 46.6466"
          stroke="#27262D" stroke-width="1.0368" stroke-miterlimit="10"/>
    <path d="M139.969 110.058C141.087 110.023 142.207 110.051 143.322 110.142C144.233 110.216 145.176 110.259 146.044 110.599C146.759 110.884 147.504 111.561 147.467 112.389C147.399 114.013 145.273 114 144.107 114"
          stroke="#27262D" stroke-width="1.0368" stroke-miterlimit="10"/>
    <path opacity="0.54"
          d="M119.962 108.51L129.656 83.6731C129.776 83.1917 129.785 82.6892 129.681 82.2041C129.578 81.7188 129.365 81.2637 129.059 80.8731C128.753 80.4826 128.362 80.167 127.916 79.9503C127.47 79.7337 126.98 79.6217 126.484 79.6231H87.9866C87.1237 79.625 86.2867 79.9171 85.6098 80.4521C84.9329 80.9871 84.4554 81.734 84.2539 82.573L73.6284 107.404C73.5133 107.884 73.5081 108.383 73.6136 108.864C73.7193 109.346 73.9327 109.798 74.2378 110.185C74.5428 110.572 74.932 110.885 75.3755 111.1C75.819 111.315 76.3058 111.427 76.7987 111.427H116.227C117.086 111.427 117.919 111.14 118.596 110.611C119.273 110.083 119.753 109.343 119.962 108.51Z"
          fill="white"/>
    <path d="M119.962 108.51L129.656 83.6731C129.776 83.1917 129.785 82.6892 129.681 82.2041C129.578 81.7188 129.365 81.2637 129.059 80.8731C128.753 80.4826 128.362 80.167 127.916 79.9503C127.47 79.7337 126.98 79.6217 126.484 79.6231H87.9866C87.1237 79.625 86.2867 79.9171 85.6098 80.4521C84.9329 80.9871 84.4554 81.734 84.2539 82.573L73.6284 107.404C73.5133 107.884 73.5081 108.383 73.6136 108.864C73.7193 109.346 73.9327 109.798 74.2378 110.185C74.5428 110.572 74.932 110.885 75.3755 111.1C75.819 111.315 76.3058 111.427 76.7987 111.427H116.227C117.086 111.427 117.919 111.14 118.596 110.611C119.273 110.083 119.753 109.343 119.962 108.51Z"
          fill="#755EC6"/>
    <path d="M119.962 108.51L129.656 83.6731C129.776 83.1917 129.785 82.6892 129.681 82.2041C129.578 81.7188 129.365 81.2637 129.059 80.8731C128.753 80.4826 128.362 80.167 127.916 79.9503C127.47 79.7337 126.98 79.6217 126.484 79.6231H87.9866C87.1237 79.625 86.2867 79.9171 85.6098 80.4521C84.9329 80.9871 84.4554 81.734 84.2539 82.573L73.6284 107.404C73.5133 107.884 73.5081 108.383 73.6136 108.864C73.7193 109.346 73.9327 109.798 74.2378 110.185C74.5428 110.572 74.932 110.885 75.3755 111.1C75.819 111.315 76.3058 111.427 76.7987 111.427H116.227C117.086 111.427 117.919 111.14 118.596 110.611C119.273 110.083 119.753 109.343 119.962 108.51Z"
          stroke="#27262D" stroke-width="1.0368" stroke-linecap="square" stroke-linejoin="round"/>
    <path d="M118.542 107.505L127.487 84.5919C127.598 84.1483 127.606 83.6855 127.511 83.2382C127.416 82.791 127.221 82.3714 126.939 82.0111C126.658 81.651 126.298 81.3595 125.887 81.1593C125.476 80.9588 125.025 80.8548 124.568 80.855H89.0432C88.2458 80.8548 87.4714 81.123 86.845 81.6168C86.2185 82.1106 85.7769 82.8007 85.5907 83.5763L75.8077 106.486C75.7022 106.928 75.6983 107.388 75.7962 107.832C75.894 108.275 76.091 108.691 76.3724 109.048C76.6538 109.405 77.0124 109.693 77.4213 109.892C77.83 110.09 78.2785 110.193 78.7329 110.194H115.098C115.89 110.194 116.659 109.93 117.283 109.443C117.908 108.955 118.351 108.273 118.542 107.505Z"
          fill="#755EC6"/>
    <path d="M91.606 85.078C92.0777 84.3714 92.842 84.048 93.3281 84.3755C93.8143 84.7031 93.8143 85.5271 93.3446 86.2295C93.2704 86.3377 93.1878 86.4397 93.0974 86.5344L96.587 93.903C97.1432 93.5322 97.7551 93.4395 98.1959 93.7321C98.3372 93.8353 98.4542 93.9679 98.5389 94.1208C98.6238 94.2738 98.6738 94.4436 98.6862 94.6179L101.072 93.8145L103.156 93.112L103.836 92.8895C103.922 92.6335 104.041 92.3898 104.19 92.1644C104.852 91.1694 105.933 90.7224 106.607 91.1756C107.28 91.6288 107.289 92.7721 106.646 93.7588L110.622 99.1869C111.489 98.4762 112.509 98.2558 113.215 98.7255C114.177 99.3662 114.192 101.037 113.248 102.454C113.209 102.512 113.166 102.557 113.127 102.611L115.772 106.228L115.797 106.263C115.932 106.467 115.98 106.717 115.932 106.956C115.883 107.196 115.741 107.407 115.537 107.542C115.333 107.678 115.084 107.726 114.844 107.677C114.604 107.629 114.393 107.487 114.258 107.283L111.909 103.737C111.166 104.168 110.375 104.25 109.796 103.865C108.877 103.247 108.832 101.706 109.652 100.332L105.847 94.589C105.284 94.9701 104.664 95.0669 104.219 94.7724C103.972 94.5968 103.804 94.3313 103.75 94.0328L103.465 94.1111L101.346 94.69L98.6306 95.4233C98.5459 95.7486 98.4066 96.0572 98.2186 96.3359C97.5573 97.3288 96.4758 97.7779 95.8022 97.3247C95.1286 96.8715 95.1183 95.7076 95.7795 94.7126C95.8765 94.5666 95.9853 94.4287 96.105 94.3006L92.7822 86.794C92.3826 87.068 91.9397 87.138 91.6224 86.9258C91.1445 86.6086 91.1363 85.7763 91.606 85.078Z"
          fill="#E6EFF9"/>
    <path d="M116.884 85.4735H122.034C122.269 85.4731 122.5 85.4045 122.697 85.2758C122.894 85.147 123.049 84.9639 123.144 84.7484C123.172 84.6833 123.188 84.6133 123.189 84.5424C123.189 84.4019 123.133 84.2672 123.033 84.1679C122.934 84.0688 122.799 84.013 122.658 84.013H117.185C117.442 84.4435 117.312 85.0471 116.884 85.4735Z"
          fill="#E6EFF9"/>
    <path d="M113.555 84.9462C113.555 85.086 113.611 85.2203 113.711 85.319C113.81 85.4179 113.944 85.4735 114.084 85.4735H116.884C117.312 85.0471 117.442 84.4435 117.184 84.0089H114.712C114.477 84.0086 114.247 84.077 114.05 84.2054C113.853 84.3337 113.697 84.5166 113.602 84.7319C113.572 84.7993 113.556 84.8722 113.555 84.9462Z"
          fill="#755EC6"/>
    <path d="M114.843 85.4735C114.858 85.5017 114.875 85.5285 114.894 85.5539C115.261 86.0565 116.058 86.1039 116.676 85.6527C116.749 85.5986 116.818 85.5386 116.882 85.4735C117.311 85.0471 117.44 84.4435 117.183 84.0089C117.17 83.9804 117.153 83.9534 117.133 83.9285C116.769 83.4238 115.972 83.3806 115.354 83.8276C115.281 83.8828 115.212 83.9433 115.148 84.0089C114.719 84.4373 114.589 85.0368 114.843 85.4735Z"
          fill="white"/>
    <path d="M112.271 88.1783C112.272 88.3186 112.328 88.4527 112.428 88.5514C112.527 88.6502 112.662 88.7057 112.802 88.7057H118.205C117.944 88.2689 118.074 87.6757 118.502 87.241H113.42C113.184 87.2412 112.954 87.3098 112.756 87.4386C112.559 87.5673 112.403 87.7504 112.308 87.9661C112.282 88.0339 112.269 88.1058 112.271 88.1783Z"
          fill="#755EC6"/>
    <path d="M118.197 88.7057H120.739C120.974 88.7057 121.204 88.6377 121.401 88.5095C121.598 88.3816 121.754 88.1993 121.85 87.9847C121.879 87.9198 121.895 87.8497 121.897 87.7787C121.897 87.709 121.884 87.64 121.857 87.5757C121.831 87.5115 121.792 87.453 121.743 87.4037C121.693 87.3545 121.635 87.3156 121.571 87.289C121.506 87.2624 121.437 87.249 121.368 87.2492H118.494C118.065 87.6695 117.936 88.2689 118.197 88.7057Z"
          fill="#E6EFF9"/>
    <path d="M118.197 88.7057C118.208 88.7341 118.224 88.7611 118.242 88.786C118.606 89.2907 119.404 89.336 120.022 88.8869C120.095 88.8317 120.164 88.771 120.228 88.7057C120.652 88.2772 120.782 87.6757 120.528 87.241C120.513 87.2132 120.497 87.1864 120.479 87.1607C120.11 86.658 119.313 86.6127 118.695 87.0638C118.622 87.1174 118.553 87.1765 118.489 87.241C118.065 87.6695 117.935 88.2689 118.197 88.7057Z"
          fill="white"/>
    <path d="M116.39 91.9151H119.624C119.859 91.9147 120.09 91.8463 120.287 91.718C120.484 91.5899 120.64 91.4071 120.736 91.1921C120.764 91.127 120.78 91.0569 120.782 90.9861C120.782 90.845 120.726 90.7094 120.626 90.6095C120.526 90.5096 120.391 90.4529 120.25 90.4525H116.697C116.952 90.8872 116.82 91.4867 116.39 91.9151Z"
          fill="#755EC6"/>
    <path d="M111.153 91.3898C111.154 91.4593 111.168 91.5277 111.194 91.5915C111.221 91.6554 111.26 91.7135 111.309 91.7623C111.359 91.8109 111.417 91.8496 111.481 91.8758C111.545 91.9022 111.614 91.9156 111.683 91.9151H116.39C116.814 91.4867 116.946 90.8851 116.691 90.4484H112.311C112.075 90.4482 111.844 90.517 111.647 90.6462C111.45 90.7753 111.295 90.9593 111.201 91.1756C111.17 91.243 111.154 91.3161 111.153 91.3898Z"
          fill="#E6EFF9"/>
    <path d="M114.354 91.9151C114.369 91.9434 114.386 91.9701 114.406 91.9955C114.77 92.5002 115.565 92.5434 116.185 92.0944C116.259 92.04 116.327 91.9802 116.391 91.9151C116.816 91.4867 116.948 90.8852 116.692 90.4484C116.679 90.42 116.662 90.393 116.643 90.3681C116.274 89.8675 115.479 89.8242 114.859 90.2713C114.786 90.3254 114.717 90.3846 114.653 90.4484C114.228 90.8769 114.097 91.4805 114.354 91.9151Z"
          fill="white"/>
    <path d="M95.4834 107.052H98.7197C98.9547 107.052 99.1848 106.983 99.3817 106.855C99.5789 106.727 99.7344 106.544 99.83 106.329C99.8582 106.264 99.8735 106.194 99.8753 106.123C99.8753 105.982 99.8193 105.847 99.7196 105.747C99.6199 105.648 99.4847 105.591 99.3438 105.591H95.7903C96.0396 106.024 95.9078 106.624 95.4834 107.052Z"
          fill="#755EC6"/>
    <path d="M82.6416 106.527C82.6418 106.596 82.6558 106.664 82.6826 106.728C82.7092 106.792 82.7483 106.85 82.7975 106.899C82.8466 106.948 82.9049 106.986 82.9689 107.013C83.0332 107.039 83.1018 107.052 83.171 107.052H95.4836C95.908 106.624 96.0398 106.022 95.7844 105.587H83.7993C83.5637 105.587 83.3333 105.656 83.136 105.784C82.9389 105.913 82.7835 106.097 82.689 106.312C82.6595 106.38 82.6435 106.453 82.6416 106.527Z"
          fill="#E6EFF9"/>
    <path d="M93.4415 107.052C93.4564 107.08 93.4737 107.107 93.493 107.132C93.8577 107.637 94.6528 107.68 95.2729 107.233C95.3456 107.178 95.4144 107.117 95.4789 107.052C95.9032 106.624 96.0351 106.022 95.7796 105.587C95.766 105.559 95.7496 105.532 95.7302 105.507C95.3615 105.004 94.5663 104.961 93.9462 105.408C93.8729 105.462 93.8039 105.522 93.7402 105.587C93.3179 106.014 93.184 106.617 93.4415 107.052Z"
          fill="white"/>
    <path d="M14.0448 114.985C14.0448 114.985 7.24675 145.694 24.7341 152.108C42.2215 158.523 89.4593 152.498 69.8275 130.34C50.1957 108.183 14.0448 114.985 14.0448 114.985Z"
          fill="#27262D"/>
    <path d="M98.8965 46.762C101.273 46.2662 103.683 45.9448 106.106 45.8C106.158 45.8 106.201 45.8 106.247 45.8C107.839 45.6949 110.628 45.6496 112.221 45.6331"
          stroke="#27262D" stroke-width="1.0368" stroke-miterlimit="10"/>
    <path d="M87.1157 51.844C87.0992 51.8544 87.0888 51.8668 87.0723 51.8771" stroke="#27262D" stroke-width="1.0368"
          stroke-miterlimit="10"/>
    <path d="M114.217 38.934C113.002 39.5726 111.605 39.14 111.069 38.0523" stroke="#27262D" stroke-width="1.0368"
          stroke-miterlimit="10"/>
    <path d="M107.162 23.4119C107.107 24.357 107.35 25.2956 107.855 26.0957C108.361 26.896 109.105 27.5177 109.982 27.8739C110.168 27.5333 110.433 27.2435 110.757 27.0293C112.122 26.1455 111.879 28.5063 115.587 27.8842C120.727 27.0169 122.037 28.807 122.037 28.807C122.15 28.9636 121.831 29.9854 121.786 30.1728C121.58 31.2708 121.374 32.3626 121.186 33.4688C121.065 34.1389 120.943 34.8049 120.82 35.467C120.913 35.3764 121.012 35.2917 121.116 35.2136C121.961 33.8952 123.199 32.4162 124.548 33.6233C124.819 33.8746 125.027 34.1867 125.154 34.5338C125.772 36.2127 124.589 37.2922 123.207 37.939C122.843 38.1597 122.455 38.3399 122.052 38.4767C122.12 38.901 122.402 40.5923 122.402 40.5964C122.431 40.7695 125.863 38.6538 126.149 38.3963C126.666 37.7122 127.065 36.9463 127.329 36.1303C128.396 32.7643 128.215 28.4136 126.067 25.6449C125.533 24.959 125.889 24.5634 126.044 23.896C126.051 23.86 126.048 23.8227 126.034 23.7889C126.02 23.7549 125.996 23.7261 125.965 23.7059C125.935 23.6857 125.899 23.6752 125.862 23.6756C125.825 23.6762 125.79 23.6875 125.76 23.7085C124.602 24.4357 122.507 23.6921 122.507 23.6921C115.709 19.6091 112.225 22.1347 110.559 22.2624C109.883 22.3088 109.212 22.1178 108.662 21.7227C108.565 21.9139 108.418 22.075 108.236 22.1889C108.055 22.3028 107.846 22.3652 107.632 22.3695L107.566 22.7239C107.515 22.9931 107.372 23.2364 107.162 23.4119Z"
          fill="#755EC6"/>
    <path d="M109.985 27.8821C109.108 27.5261 108.364 26.9044 107.858 26.1041C107.352 25.3038 107.11 24.3653 107.165 23.4201C107.185 23.0572 107.237 22.6967 107.321 22.3428L107.381 22.3551C107.462 22.3735 107.545 22.3796 107.628 22.3737C107.842 22.3695 108.052 22.3071 108.233 22.1932C108.414 22.0793 108.562 21.918 108.658 21.7268C108.715 21.6205 108.755 21.5058 108.776 21.3869L109.093 19.6627C109.093 19.6627 110.123 21.0573 111.771 20.9275C113.419 20.7978 116.902 18.2722 123.719 22.3572C123.719 22.3572 125.355 22.9608 126.512 22.2336C126.542 22.2128 126.578 22.2012 126.615 22.2008C126.651 22.2004 126.687 22.2109 126.718 22.2311C126.748 22.2513 126.772 22.2801 126.786 22.3139C126.8 22.3479 126.804 22.3852 126.797 22.421C126.642 23.0864 126.745 23.6241 127.279 24.3101C129.427 27.0787 129.609 31.4294 128.541 34.7955C128.074 36.1905 127.245 37.436 126.137 38.4046C125.851 38.6621 122.419 40.7777 122.39 40.6047C122.39 40.6047 122.108 38.9093 122.04 38.4849L122.024 38.3881L122.12 38.3593C122.488 38.2458 122.847 38.1081 123.196 37.9473C124.578 37.3004 125.767 36.221 125.142 34.5421C125.015 34.1952 124.808 33.8831 124.537 33.6316C123.188 32.4244 121.949 33.9035 121.105 35.2219C120.942 35.4722 120.807 35.7404 120.705 36.0212C120.738 35.8399 120.771 35.6627 120.806 35.4814C120.93 34.8181 121.052 34.1521 121.173 33.4832C121.379 32.3832 121.57 31.2914 121.772 30.1872C121.809 29.9998 122.137 28.978 122.024 28.8215C122.024 28.8215 120.713 27.0313 115.574 27.8986C111.866 28.5166 112.109 26.1599 110.743 27.0437C110.42 27.2579 110.154 27.548 109.969 27.8883C109.911 27.9993 109.86 28.1134 109.816 28.2302C109.809 28.2449 109.802 28.2601 109.798 28.2756C109.705 28.531 109.62 28.7885 109.538 29.0398C108.768 31.4892 108.259 34.1342 108.531 36.7071C108.862 39.826 111.135 43.4928 114.75 43.1817C115.887 43.0484 116.997 42.737 118.038 42.2588"
          stroke="#27262D" stroke-width="1.0368" stroke-miterlimit="10"/>
    <path d="M110.379 34.5295C110.733 34.5194 111.01 34.1647 110.998 33.737C110.986 33.3094 110.69 32.9709 110.336 32.981C109.982 32.9909 109.705 33.3456 109.717 33.7733C109.729 34.2009 110.026 34.5394 110.379 34.5295Z"
          fill="#27262D"/>
    <path d="M115.221 35.8298C115.575 35.8197 115.852 35.465 115.84 35.0375C115.828 34.6099 115.531 34.2712 115.178 34.2813C114.824 34.2914 114.547 34.6461 114.559 35.0736C114.571 35.5012 114.868 35.8399 115.221 35.8298Z"
          fill="#27262D"/>
    <path d="M113.131 36.1159C113.131 36.1159 111.258 36.5279 111.448 35.568C111.506 35.2672 111.975 32.3132 111.975 32.3132C111.975 32.3132 111.102 30.5539 108.817 30.9639"
          stroke="#27262D" stroke-width="1.0368" stroke-miterlimit="10"/>
    <path d="M113.972 32.0495C113.972 32.0495 116.94 31.5448 118.077 33.9158" stroke="#27262D" stroke-width="1.0368"
          stroke-miterlimit="10"/>
    <path d="M112.253 45.6084C109.915 46.8444 108.667 49.819 109.645 51.9717C111.277 55.5582 115.572 56.6129 119.121 55.5767C123.068 54.4231 125.969 50.7852 125.796 46.6137"
          stroke="#27262D" stroke-width="1.0368" stroke-miterlimit="10"/>
    <path d="M126.409 113.998C133.189 98.2435 135.65 70.4355 135.65 70.4355V109.234C135.65 109.859 135.773 110.479 136.012 111.057C136.252 111.636 136.603 112.161 137.045 112.603C137.488 113.046 138.013 113.397 138.591 113.636C139.17 113.876 139.789 113.999 140.415 113.998H155.453C156.017 114.007 156.564 113.807 156.989 113.437C157.415 113.068 157.689 112.553 157.758 111.994C157.788 111.686 157.754 111.375 157.656 111.081C157.559 110.787 157.401 110.516 157.193 110.287C156.985 110.058 156.731 109.875 156.447 109.75C156.164 109.625 155.858 109.56 155.548 109.561H149.388C149.143 109.56 148.901 109.503 148.68 109.395C148.46 109.286 148.267 109.129 148.117 108.935C147.967 108.74 147.863 108.514 147.814 108.274C147.764 108.033 147.77 107.784 147.831 107.546C151.539 92.9204 153.832 75.7524 149.005 60.5599C148.008 57.4246 145.86 54.6312 143.322 52.4723C140.409 49.9838 136.818 48.8426 133.139 47.998C130.712 47.4418 128.265 46.9816 125.795 46.6178C125.788 46.6203 125.78 46.6203 125.773 46.6178C125.756 46.6178 125.74 46.6178 125.729 46.6178H125.713H125.69H125.657"
          stroke="#27262D" stroke-width="1.0368" stroke-miterlimit="10"/>
    <path d="M124.243 39.6179L123.971 44.5393C123.945 45.0203 124.096 45.4941 124.395 45.8713C124.695 46.2484 125.122 46.5031 125.596 46.5869H125.658C125.668 46.584 125.68 46.584 125.691 46.5869H125.701H125.73"
          stroke="#27262D" stroke-width="1.0368" stroke-miterlimit="10"/>
    <path d="M125.773 46.6096H125.73H125.713H125.701H125.691H125.658H125.596C125.122 46.5257 124.695 46.2711 124.395 45.8939C124.096 45.5165 123.945 45.0427 123.971 44.5619L124.243 39.6406"
          stroke="#27262D" stroke-width="1.0368" stroke-miterlimit="10"/>
    <path d="M112.642 42.8748C112.509 42.8212 112.642 48.3709 109.332 50.7811" stroke="#27262D" stroke-width="1.0368"
          stroke-miterlimit="10"/>
    <path d="M68.3217 114H57.7168" stroke="#27262D" stroke-width="1.0368" stroke-miterlimit="10"/>
    <path d="M171.926 114H84.833" stroke="#27262D" stroke-width="1.0368" stroke-miterlimit="10"/>
    <path d="M37.6463 61.8968C37.7485 63.9745 37.6742 66.0572 37.4239 68.1221C37.1025 70.5488 34.8592 73.6326 34.373 76.0325C33.6788 79.4851 34.7294 83.053 36.1714 86.2584C37.9141 90.1332 40.6601 94.0308 40.3923 98.468C40.2551 100.4 39.68 102.277 38.7107 103.954C37.7413 105.631 36.4031 107.066 34.7974 108.15C32.5977 109.621 30.0853 110.56 27.4596 110.89C27.093 110.933 26.7201 110.968 26.3472 110.978C26.1412 110.978 25.9352 110.956 25.7292 110.939C18.7458 110.348 11.5832 105.021 11.5996 97.6049C11.5996 92.8669 15.2005 89.1589 15.8082 84.5609C16.1811 81.749 15.3571 78.828 16.1193 76.0985C17.3553 71.7395 22.1325 69.3623 24.2254 65.3494C25.7663 62.3871 26.0176 58.9304 27.2372 55.8239C28.9346 51.4979 31.6456 46.5539 35.3536 46.1419C36.4295 46.2639 37.4696 46.6032 38.4106 47.139C40.7096 48.375 41.2946 48.4533 41.7622 49.5554C42.2401 50.7069 41.5274 51.9367 40.3367 52.3055C38.3261 52.942 37.4589 57.027 37.6463 61.8968Z"
          fill="#755EC6"/>
    <path d="M39.667 47.8085C45.7028 46.0595 49.5385 48.6325 52.2824 51.5989C55.0264 54.5653 54.8986 57.9334 54.8986 57.9334"
          stroke="#27262D" stroke-width="1.0368" stroke-miterlimit="10"/>
    <path d="M58.3883 105.826C58.2973 110.542 57.6999 115.234 56.6064 119.822" stroke="#27262D" stroke-width="1.0368"
          stroke-miterlimit="10"/>
    <path d="M73.3871 144.229C71.1767 148.032 65.934 150.732 59.5192 152.413C48.1356 155.396 33.0646 155.163 24.7381 152.106C7.24052 145.693 14.0426 114.985 14.0426 114.985C14.0426 114.985 44.3061 109.289 64.4858 125.285C66.4138 126.809 68.2033 128.5 69.8336 130.338C72.0646 132.862 73.4344 135.171 74.0813 137.28C74.8744 139.909 74.5572 142.224 73.3871 144.229Z"
          stroke="#27262D" stroke-width="1.0368" stroke-miterlimit="10"/>
    <path d="M61.7873 151.894C61.7873 151.894 51.1845 181.325 68.9973 188.842C86.8102 196.359 3.58408 197.36 21.9552 188.842C40.3263 180.324 29.7667 153.692 29.7667 153.692"
          stroke="#27262D" stroke-width="1.0368" stroke-miterlimit="10"/>
    <path d="M83.3557 51.877C83.1353 51.2034 83.2259 48.8611 83.298 47.5386C83.3118 47.289 83.4224 47.0543 83.6062 46.8848C83.7899 46.7152 84.0326 46.6238 84.2827 46.6302L105.445 46.8156C105.802 46.8189 106.143 46.9629 106.394 47.2162C106.645 47.4698 106.786 47.8122 106.786 48.169V64.0495C106.786 64.2277 106.751 64.4043 106.682 64.5688C106.614 64.7334 106.514 64.883 106.387 65.0087C106.261 65.1345 106.111 65.234 105.946 65.3016C105.781 65.3694 105.605 65.4038 105.427 65.4029L84.8039 65.3267C84.5052 65.3144 84.2227 65.1871 84.0157 64.9714C83.8087 64.7555 83.6933 64.4679 83.6935 64.169V62.9577C85.1602 63.6416 87.933 63.8518 87.933 63.8518C88.9197 63.825 90.4791 63.7055 91.334 63.2152C92.1168 62.7661 93.1056 62.1214 93.2395 61.1449C93.2913 60.7673 93.1913 60.3846 92.9617 60.0803C92.732 59.7761 92.3912 59.5752 92.0139 59.5216C91.787 59.4763 91.5524 59.4928 91.334 59.569"
          stroke="#27262D" stroke-width="1.0368" stroke-miterlimit="10"/>
    <path d="M104.009 95.8848C104 96.168 103.904 96.4418 103.735 96.6696C103.251 97.265 102.293 97.1475 101.642 96.9642C98.9047 96.1855 97.2609 99.1519 96.2267 101.15C93.6147 106.201 89.6965 110.894 84.8082 114C84.4909 114.206 84.1675 114.4 83.84 114.59C79.0628 117.346 72.8725 116.833 68.252 113.972L74.16 99.4589L74.7451 99.9265C78.313 102.742 82.7049 101.162 85.7455 98.3835C86.5894 97.6147 87.3341 96.7434 87.962 95.79C89.0085 94.1811 89.9046 92.4446 91.3363 91.1365C93.318 89.3257 96.2185 88.9714 98.7235 89.7377C101.228 90.504 104.236 92.9678 104.009 95.8848Z"
          fill="white"/>
    <path d="M103.985 94.8568C103.985 94.8568 103.313 91.3013 97.2588 94.0761" stroke="#27262D" stroke-width="1.0368"
          stroke-miterlimit="10"/>
    <path d="M100.617 90.5885C100.617 90.5885 96.8434 89.3813 94.7422 92.2653" stroke="#27262D" stroke-width="1.0368"
          stroke-miterlimit="10"/>
    <path d="M24.4355 110.945C25.4433 111.035 26.4574 111.019 27.4617 110.896C30.0867 110.561 32.5981 109.621 34.7973 108.15C36.4031 107.066 37.7415 105.631 38.7107 103.954C39.6801 102.276 40.2551 100.401 40.3923 98.468C40.6601 94.0287 37.9203 90.1312 36.1713 86.2563C34.7293 83.0489 33.6787 79.481 34.375 76.0325C34.8591 73.6306 37.0984 70.5488 37.4218 68.1201C37.6733 66.0551 37.7491 63.9725 37.6484 61.8948C37.4609 57.0229 38.3261 52.9338 40.3367 52.3116C41.5273 51.9429 42.2422 50.711 41.7622 49.5615C41.3028 48.4574 40.7116 48.3915 38.4106 47.141C32.4119 43.878 28.2404 49.9612 25.9373 55.826C24.7157 58.9345 24.4685 62.3871 22.9256 65.3494C20.8326 69.3643 16.0452 71.7354 14.8215 76.1026C14.0573 78.83 14.8813 81.7532 14.5105 84.561C13.9048 89.1568 10.3101 92.8628 10.2998 97.6049C10.2834 105.019 17.4542 110.35 24.4355 110.945Z"
          stroke="#27262D" stroke-width="1.0368" stroke-miterlimit="10"/>
    <path d="M73.3876 144.229C72.8706 147.908 72.1001 152.129 71.2514 156.354C68.8453 168.329 65.7842 180.376 65.7842 180.376"
          stroke="#27262D" stroke-width="1.0368" stroke-miterlimit="10"/>
    <path d="M74.0731 137.28C74.0834 136.831 74.0896 136.419 74.0731 136.028C73.8897 127.582 67.8169 125.563 65.2048 125.079C64.815 125.003 64.4208 124.953 64.0244 124.929"
          stroke="#27262D" stroke-width="1.0368" stroke-miterlimit="10"/>
    <path d="M66.6899 176.723C67.0261 176.517 67.4111 176.405 67.8054 176.397C68.1995 176.39 68.5884 176.488 68.9323 176.68C69.2761 176.873 69.5622 177.154 69.7612 177.495C69.9602 177.835 70.0648 178.222 70.0642 178.616C70.0642 178.645 70.0642 178.68 70.0642 178.721C70.0315 179.739 69.7635 180.735 69.2812 181.631C68.7992 182.527 68.1161 183.3 67.2853 183.888L64.4219 185.925"
          stroke="#27262D" stroke-width="1.0368" stroke-miterlimit="10"/>
    <path d="M34.1631 78.7559C34.5627 78.5931 34.9706 78.4489 35.3826 78.315C36.2499 76.7123 36.116 73.2042 36.0336 71.929L36.9008 69.9741C39.2945 71.4449 42.4628 70.8928 45.4024 69.869C45.8153 69.7248 46.2168 69.5499 46.6034 69.3458C48.4698 68.4888 51.086 66.4618 49.9118 65.4153C48.7376 64.3688 48.82 62.3541 49.5719 61.1181C49.8005 60.7391 50.2064 60.3662 50.6287 60.4837C50.9129 60.5619 51.0963 60.8277 51.259 61.0728C51.465 61.3798 51.671 61.6743 51.877 61.9751C51.9491 62.076 52.0665 62.1811 52.1778 62.1358C52.2248 62.1049 52.2614 62.0604 52.2828 62.0081C52.6454 61.2623 52.5774 60.1932 52.6392 59.3754C52.7113 58.401 52.7669 57.4204 52.7958 56.4419C52.8123 55.9022 52.9235 55.3234 53.5024 55.1338C53.6192 55.0889 53.7448 55.071 53.8695 55.0817C53.9943 55.0924 54.115 55.1314 54.2223 55.1956C54.3299 55.2601 54.4211 55.3481 54.4895 55.4529C54.5579 55.558 54.6014 55.6771 54.6168 55.8013C55.0381 58.1688 55.0999 60.5862 54.8002 62.9721C54.5159 65.4709 54.0029 68.1221 52.4003 70.1368C51.4871 71.2991 50.2636 72.1789 48.8715 72.6747C47.5242 73.1424 47.5675 74.7677 47.5675 76.1932V78.5602C51.7102 79.4006 55.6015 80.4142 58.8192 83.2982C60.9472 85.2436 62.9495 87.3222 64.8138 89.5214C70.6828 96.408 71.9517 97.6996 74.778 99.9265C78.346 102.742 82.7399 101.162 85.7784 98.3835C86.6208 97.6145 87.364 96.7432 87.9909 95.79C89.0374 94.1811 89.9335 92.4446 91.3631 91.1365C93.3469 89.3257 96.2474 88.9714 98.7523 89.7377C101.257 90.504 104.269 92.9678 104.03 95.8848C104.02 96.1678 103.925 96.4412 103.758 96.6696C103.274 97.265 102.316 97.1475 101.665 96.9642C98.9254 96.1855 97.2835 99.1519 96.2474 101.15C93.6373 106.201 89.7172 110.894 84.8288 114C84.5115 114.206 84.1902 114.4 83.8606 114.59C78.3995 117.741 71.0783 116.617 66.3815 112.602L55.0515 102.984"
          stroke="#27262D" stroke-width="1.0368" stroke-miterlimit="10"/>
    <path d="M35.3828 78.315C35.3828 78.315 40.7944 76.6423 47.5677 78.5663" stroke="#27262D" stroke-width="1.0368"
          stroke-miterlimit="10"/>
    <path d="M83.6943 62.9577C83.6943 62.9577 83.7355 69.9617 85.4062 72.6583" stroke="#27262D" stroke-width="1.0368"
          stroke-miterlimit="10"/>
    <path d="M89.1843 30.9C87.8988 33.0939 87.9586 34.6513 88.2923 37.1789C88.3199 37.3941 88.2861 37.6127 88.1947 37.8097C88.1034 38.0066 87.9584 38.1737 87.7761 38.2917C87.594 38.4097 87.3822 38.4738 87.1651 38.4767C86.9482 38.4794 86.7347 38.4209 86.5495 38.3078C79.1335 34.0394 72.1934 37.4158 63.3395 35.3249C60.0888 34.5606 56.0368 32.9806 53.2579 30.4365C52.336 29.0672 51.8439 27.454 51.8447 25.8036C51.8447 18.884 61.2981 13.2725 72.9535 13.2725C80.4252 13.2725 86.9883 15.5777 90.7416 19.0508C90.7416 19.0508 90.7416 19.0508 90.7519 19.0632C91.6936 20.417 92.2075 22.0224 92.2269 23.6715C92.2269 26.162 90.3811 28.84 89.1843 30.9Z"
          fill="#E6EFF9"/>
    <path d="M92.1932 23.6756V23.8507C92.1499 26.2753 90.9366 28.5289 89.4966 30.4798C88.5326 31.7858 87.3893 33.234 87.6612 34.8346C87.7807 35.5391 88.1741 36.1798 88.2792 36.8946C88.3842 37.6094 88.0011 38.4849 87.2863 38.522C86.8331 38.5447 86.4458 38.2212 86.0873 37.9431C83.9594 36.2951 81.1948 35.6771 78.5065 35.57C75.8182 35.4629 73.1341 35.8152 70.4437 35.8914C66.5668 36.0026 62.6281 35.5185 59.0457 34.0374C55.8259 32.6943 52.8904 30.5107 50.9582 27.604C49.0609 24.7385 50.1836 20.5814 52.2065 18.0909C54.1058 15.7548 56.8539 14.2593 59.674 13.2066C67.2569 10.3741 75.913 10.4421 83.3929 13.5424C85.6135 14.4529 87.7559 15.656 89.4245 17.3905C91.0519 19.0817 92.1788 21.3354 92.1932 23.6756Z"
          stroke="#27262D" stroke-width="1.0368" stroke-miterlimit="10"/>
    <path d="M61.075 26.4319C62.6836 26.4319 63.9878 25.1279 63.9878 23.519C63.9878 21.9104 62.6836 20.6062 61.075 20.6062C59.4663 20.6062 58.1621 21.9104 58.1621 23.519C58.1621 25.1279 59.4663 26.4319 61.075 26.4319Z"
          fill="white"/>
    <path d="M70.4929 26.4319C72.1016 26.4319 73.4058 25.1279 73.4058 23.519C73.4058 21.9104 72.1016 20.6062 70.4929 20.6062C68.8841 20.6062 67.5801 21.9104 67.5801 23.519C67.5801 25.1279 68.8841 26.4319 70.4929 26.4319Z"
          fill="white"/>
    <path d="M80.0955 26.4319C81.7041 26.4319 83.0083 25.1279 83.0083 23.519C83.0083 21.9104 81.7041 20.6062 80.0955 20.6062C78.4868 20.6062 77.1826 21.9104 77.1826 23.519C77.1826 25.1279 78.4868 26.4319 80.0955 26.4319Z"
          fill="white"/>
    <g opacity="0.54">
        <path opacity="0.54"
              d="M136.067 145.642L134.882 162.74C134.341 163.772 133.664 164.727 132.87 165.581C132.783 165.55 132.697 165.517 132.612 165.478C132.454 165.424 132.297 165.36 132.149 165.299C129.749 164.246 127.926 162.285 127.394 160.062C126.914 158.115 127.347 156.012 126.42 154.183C125.289 151.929 122.213 150.516 121.836 147.974C121.482 145.595 123.624 143.413 123.278 141.081C122.866 138.444 119.642 136.881 119.039 134.306C118.662 132.705 119 130.868 118.858 129.22C118.701 127.376 118.392 125.549 117.933 123.757C122.706 123.41 127.563 126.041 129.11 129.809C130.373 132.899 129.613 136.498 131.582 139.307C132.657 140.83 134.448 141.969 135.375 143.561C135.661 144.058 135.869 144.596 135.993 145.156C135.993 145.195 135.993 145.234 136.007 145.265C136.007 145.329 136.024 145.374 136.032 145.422C136.052 145.564 136.067 145.642 136.067 145.642Z"
              fill="#755EC6"/>
        <path opacity="0.54"
              d="M136.076 145.629C136.076 145.629 136.061 145.558 136.045 145.422C136.059 145.476 136.07 145.531 136.076 145.587C136.079 145.594 136.081 145.601 136.081 145.608C136.081 145.615 136.079 145.622 136.076 145.629Z"
              fill="#755EC6"/>
    </g>
    <path d="M151.845 138.955C151.227 141.176 147.842 142.525 147.434 144.802C147.074 146.82 149.302 148.703 148.934 150.753C148.54 152.951 145.337 154.166 144.161 156.109C143.203 157.687 143.65 159.502 143.155 161.181C142.583 163.088 140.683 164.792 138.178 165.694C138.022 165.75 137.874 165.803 137.715 165.851C137.628 165.875 137.534 165.906 137.447 165.929C136.623 165.247 135.665 164.046 134.889 162.75L136.067 145.642C136.986 144.863 138.036 144.151 138.768 143.285C139.561 142.352 139.929 141.333 140.164 140.263H140.189V140.146C140.533 138.459 140.564 136.691 141.357 135.091C142.966 131.834 148.015 129.564 152.984 129.862C152.515 131.401 152.194 132.98 152.026 134.58C151.884 135.995 152.234 137.581 151.845 138.955Z"
          fill="#755EC6"/>
    <path d="M140.197 140.131V140.248H140.173L140.197 140.131Z" fill="#755EC6"/>
    <path d="M140.197 140.131L140.173 140.249C139.938 141.318 139.569 142.338 138.776 143.271C138.045 144.136 136.994 144.849 136.075 145.628C136.079 145.617 136.079 145.605 136.075 145.595C136.069 145.539 136.058 145.484 136.044 145.43C136.044 145.382 136.028 145.337 136.02 145.273C136.02 145.242 136.02 145.203 136.005 145.164C135.882 144.604 135.673 144.066 135.387 143.57C134.46 141.977 132.67 140.838 131.595 139.316C131.595 139.316 132.081 131.292 136.186 128.851C140.08 126.544 140.197 138.797 140.197 140.131Z"
          fill="#755EC6"/>
    <path d="M140.197 140.131V140.248H140.173L140.197 140.131Z" fill="#755EC6"/>
    <path d="M136.067 145.595V145.642C136.067 145.642 136.053 145.572 136.036 145.436C136.05 145.488 136.06 145.541 136.067 145.595Z"
          fill="#755EC6"/>
    <path d="M135.7 145.642C136.615 144.863 137.678 144.14 138.411 143.277C140.471 140.848 139.676 137.744 140.997 135.08C142.603 131.828 147.657 129.56 152.623 129.856C152.151 131.394 151.83 132.974 151.663 134.574C151.515 135.999 151.869 137.583 151.48 138.964C150.848 141.184 147.475 142.531 147.065 144.808C146.701 146.824 148.936 148.707 148.567 150.755C148.174 152.955 144.972 154.17 143.794 156.111C142.832 157.691 143.283 159.502 142.785 161.185C142.181 163.214 140.08 165.006 137.342 165.853C137.256 165.882 137.161 165.912 137.072 165.935C136.248 165.253 135.29 164.052 134.512 162.754"
          stroke="#27262D" stroke-width="1.0368" stroke-miterlimit="10"/>
    <path d="M149.591 132.404C142.185 140.375 138.702 157.178 137.346 165.855C137.235 166.586 137.14 167.256 137.05 167.859"
          stroke="#27262D" stroke-width="1.0368" stroke-miterlimit="10"/>
    <path d="M150.274 172.745L146.878 192.849C146.797 193.399 146.524 193.904 146.107 194.272C145.69 194.641 145.156 194.849 144.599 194.862H126.784C126.222 194.849 125.684 194.636 125.265 194.26C124.846 193.885 124.576 193.373 124.502 192.816L121.36 172.743L150.274 172.745Z"
          stroke="#27262D" stroke-width="1.0368" stroke-miterlimit="10"/>
    <path d="M153.511 170.5C153.48 171.096 153.225 171.659 152.798 172.075C152.37 172.492 151.8 172.731 151.203 172.745H120.487C119.896 172.731 119.333 172.497 118.907 172.088C118.48 171.679 118.222 171.126 118.184 170.537C118.054 169.095 119.121 167.859 120.487 167.859H151.203C152.557 167.861 153.62 169.079 153.511 170.5Z"
          stroke="#27262D" stroke-width="1.0368" stroke-miterlimit="10"/>
    <path d="M132.505 165.577C133.824 164.269 135.439 161.352 136.154 158.97C136.743 157.007 135.707 154.986 135.468 152.971C135.097 149.818 136.662 146.427 135.012 143.568C134.092 141.973 132.301 140.84 131.226 139.314C129.246 136.502 130.007 132.905 128.742 129.821C127.195 126.049 122.339 123.419 117.568 123.769C118.024 125.562 118.333 127.389 118.493 129.232C118.635 130.88 118.287 132.718 118.67 134.316C119.274 136.891 122.512 138.451 122.91 141.089C123.26 143.421 121.116 145.605 121.468 147.98C121.847 150.526 124.918 151.933 126.053 154.191C126.976 156.022 126.544 158.124 127.022 160.068C127.621 162.499 129.745 164.635 132.505 165.577Z"
          stroke="#27262D" stroke-width="1.0368" stroke-miterlimit="10"/>
    <path d="M120.481 126.723C127.591 135.96 130.936 155.425 132.252 165.474C132.364 166.345 132.458 167.144 132.543 167.859"
          stroke="#27262D" stroke-width="1.0368" stroke-miterlimit="10"/>
    <path d="M131.222 139.314C131.222 139.314 131.71 131.29 135.813 128.851C139.917 126.412 139.83 140.08 139.83 140.08"
          stroke="#27262D" stroke-width="1.0368" stroke-miterlimit="10"/>
    <path d="M135.701 145.642C135.701 145.642 134.862 141.052 136.333 136.539" stroke="#27262D" stroke-width="1.0368"
          stroke-miterlimit="10"/>
</svg>
