<svg width="318" height="222" viewBox="0 0 318 222" fill="none" xmlns="http://www.w3.org/2000/svg">
    <path d="M244.401 132.524L243.838 137.899C242.373 141.399 240.909 144.897 239.447 148.393C238.936 149.62 238.423 150.846 237.907 152.069C237.674 152.641 237.342 153.168 236.928 153.627C236.908 153.658 236.88 153.683 236.848 153.702C236.816 153.721 236.78 153.732 236.744 153.735C236.62 153.735 236.575 153.57 236.565 153.446C236.495 152.12 236.337 150.801 236.092 149.496C234.721 143.196 227.407 140.888 221.67 141.031C219.375 141.066 217.114 141.59 215.037 142.567C212.041 144.017 210.874 148.049 210.715 148.199L210.588 148.717L208.534 157.274C208.101 159.182 207.771 160.19 206.009 160.699C205.952 160.718 204.196 161.653 204.139 161.653C203.458 161.844 205.322 161.434 204.584 161.31L202.247 160.944L201.252 160.715L186.729 157.277C187.291 157.373 187.867 157.478 188.452 157.595L191.823 158.4L190.932 154.126C188.614 140.821 192.456 128.75 199 122.196C200.724 120.472 201.579 120.03 203.589 118.882L204.718 121.556C204.718 121.556 216.268 125 218.99 114.433C220.09 114.529 222.205 114.513 223.295 114.751C228.981 115.943 234.116 118.974 237.907 123.375C238.241 123.757 238.569 124.151 238.893 124.552L239.065 124.762C239.265 125.013 239.478 125.271 239.679 125.528L239.822 125.732C241.484 127.902 243.013 130.17 244.401 132.524Z"
          fill="#556980"/>
    <path d="M107.166 76.8998C108.998 67.7414 116.776 58.8692 138.991 56.8371C188.37 52.3247 161.678 38.7111 177.756 23.8128C193.834 8.91453 254.626 33.426 238.723 71.7068C222.819 109.988 275.318 67.4997 297.553 115.988C300.774 123.025 302.325 130.71 302.084 138.445C301.804 146.618 299.699 154.625 295.924 161.879C288.824 175.75 275.633 188.108 256.556 195.765C253.741 196.912 250.794 197.943 247.716 198.859"
          stroke="#9EAFC3" stroke-width="1.43736" stroke-miterlimit="10"/>
    <path d="M263.584 152.221C263.199 156.715 260.153 157.446 260.153 157.446C257.577 158.969 253.621 157.332 252.823 154.476C252.811 154.445 252.804 154.413 252.804 154.38C252.168 151.935 250.928 148.793 249.261 145.356C246.049 137.584 241.874 129.748 236.519 123.55C232.727 119.149 227.592 116.119 221.907 114.926C221.888 114.926 221.878 114.907 221.859 114.907C214.319 112.637 210.65 108 209.06 103.555C209.06 103.555 209.06 103.555 209.06 103.535C208.379 100.728 207.686 97.9895 208.058 96.3328C208.694 93.4294 209.012 90.2908 208.22 89.6548C207.225 88.8216 205.425 89.4385 200.846 90.3607C196.88 91.1748 194.766 90.7137 194.289 88.2905C194.213 87.9147 194.175 87.5321 194.174 87.1489C194.155 87.3906 193.22 86.4302 193.176 86.6592C192.877 87.8962 192.279 88.3923 190.975 88.9361C189.038 89.7406 188.247 92.8475 187.96 94.9176C187.661 97.1214 188.654 100.161 189.439 102.232C188.434 101.084 187.283 101.217 185.483 101.914C185.032 102.085 183.893 102.038 182.993 101.723C183.12 101.614 183.27 101.534 183.432 101.491C183.721 101.395 181.623 100.352 181.928 100.285C184.984 99.5954 186.698 97.0483 186.335 94.8064C185.435 89.1619 186.634 82.522 190.447 78.1241C194.651 73.2873 201.51 72.2824 207.317 74.4957C211.877 76.2288 216.189 79.784 217.77 84.5254C217.77 84.5445 217.77 84.5636 217.789 84.5827C217.99 85.1856 218.144 85.8035 218.25 86.4302C218.832 89.9569 217.588 93.5312 216.898 97.0164C216.65 98.2725 217.28 99.6431 217.414 100.638C218.18 106.617 225.08 108.305 230.541 110.843C242.017 116.189 251.389 125.328 257.691 136.442C261.876 143.801 263.371 148.819 263.584 152.221Z"
          fill="#755EC6"/>
    <path d="M203.081 117.696C202.957 117.763 202.833 117.83 202.719 117.906C200.658 119.087 198.763 120.537 197.084 122.218C190.543 128.772 186.701 140.843 189.019 154.148L189.91 158.4"
          stroke="#556980" stroke-width="1.43736" stroke-miterlimit="10"/>
    <path d="M260.958 206.971C260.959 197.039 260.101 187.125 258.392 177.34C257.249 170.701 255.675 164.144 253.679 157.71C252.48 153.802 251.014 149.585 249.272 145.353C247.653 141.391 245.784 137.538 243.675 133.815C241.63 130.17 239.237 126.731 236.529 123.547C232.738 119.146 227.603 116.115 221.917 114.923C220.827 114.692 219.723 114.526 218.613 114.427"
          stroke="#556980" stroke-width="1.43736" stroke-miterlimit="10"/>
    <path d="M143.419 120.529L143.256 120.501C141.314 120.175 139.321 120.343 137.461 120.987C135.6 121.632 133.931 122.733 132.607 124.19L121.731 136.038L120.459 137.437C120.38 137.523 120.305 137.614 120.236 137.708"
          stroke="#556980" stroke-width="1.43736" stroke-miterlimit="10"/>
    <path d="M127.712 140.802L133.681 134.181L133.69 134.172" stroke="#556980" stroke-width="1.43736"
          stroke-miterlimit="10"/>
    <path d="M179.635 175L207.711 184.893C210.415 185.845 213.292 186.205 216.147 185.946C219.003 185.688 221.768 184.818 224.257 183.395C226.746 181.972 228.899 180.03 230.571 177.7C232.242 175.371 233.392 172.709 233.943 169.896L240.586 135.984C240.925 134.243 240.91 132.451 240.539 130.716C240.169 128.981 239.451 127.338 238.43 125.888C238.144 125.479 237.834 125.088 237.501 124.717"
          stroke="#556980" stroke-width="1.43736" stroke-miterlimit="10"/>
    <path d="M161.054 173.632C157.48 176.046 154.853 183.376 153.457 188.187C153.218 188.994 152.724 189.702 152.048 190.204C151.373 190.706 150.553 190.976 149.711 190.973C149.142 190.973 148.579 190.849 148.061 190.61C147.267 190.238 146.622 189.609 146.23 188.825C145.837 188.041 145.721 187.147 145.899 186.289C148.236 174.86 156.485 152.298 184.822 157.271C185.388 157.367 185.963 157.471 186.545 157.589L189.91 158.4L199.345 160.699L201.889 161.313C202.854 161.547 203.866 161.511 204.811 161.208C204.87 161.197 204.927 161.181 204.983 161.16C205.855 160.861 206.636 160.347 207.256 159.666C207.876 158.984 208.314 158.157 208.529 157.262L210.675 148.332L210.799 147.814L213.61 136.14"
          stroke="#556980" stroke-width="1.43736" stroke-miterlimit="10"/>
    <path d="M147.235 137.04H137.618C136.522 137.04 135.47 136.604 134.695 135.829C133.92 135.054 133.484 134.002 133.484 132.906C133.484 131.81 133.92 130.758 134.695 129.983C135.47 129.208 136.522 128.772 137.618 128.772H151.241"
          stroke="#556980" stroke-width="1.43736" stroke-miterlimit="10"/>
    <path d="M139.853 137.037C139.716 138.722 139.074 139.969 138.126 140.83C135.684 143.056 131.21 142.802 128.097 141.279"
          stroke="#556980" stroke-width="1.43736" stroke-miterlimit="10"/>
    <path d="M121.743 136.035C118.986 132.702 119.549 128.184 121.689 124.692C127.76 114.783 141.631 116.685 150.627 120.803C157.916 124.129 164.301 129.128 170.518 134.114C173.555 136.55 176.538 139.088 179.422 141.746C179.952 142.226 180.583 142.578 181.269 142.778C181.954 142.978 182.676 143.02 183.38 142.901C184.084 142.781 184.752 142.504 185.334 142.089C185.915 141.674 186.394 141.133 186.736 140.506C188.326 137.571 190.047 134.369 190.371 133.482"
          stroke="#556980" stroke-width="1.43736" stroke-miterlimit="10"/>
    <path d="M138.131 140.831C138.131 140.831 152.476 148.612 163.132 159.793" stroke="#556980" stroke-width="1.43736"
          stroke-miterlimit="10"/>
    <path d="M157.552 177.852C155.962 180.568 157.33 184.555 160.335 185.509C164.172 186.748 168.23 187.155 172.237 186.702C176.61 186.193 179.516 182.584 181.431 178.45C181.569 178.142 181.642 177.809 181.643 177.472C181.644 177.134 181.575 176.8 181.438 176.492C181.302 176.183 181.103 175.907 180.853 175.68C180.602 175.454 180.308 175.283 179.987 175.178C179.409 174.987 178.779 175.022 178.225 175.275C177.671 175.527 177.233 175.98 176.998 176.542C176.362 178.011 175.379 179.849 174.075 180.676"
          stroke="#556980" stroke-width="1.43736" stroke-miterlimit="10"/>
    <path d="M165.042 177.343C165.042 177.343 161.114 181.566 164.212 186.037C164.348 186.225 164.508 186.394 164.689 186.54"
          stroke="#556980" stroke-width="1.43736" stroke-miterlimit="10"/>
    <path d="M170.223 178.04C170.223 178.04 166.591 186.212 171.25 186.81" stroke="#556980" stroke-width="1.43736"
          stroke-miterlimit="10"/>
    <path d="M299.155 206.978H74.2529" stroke="#556980" stroke-width="1.43736" stroke-miterlimit="10"/>
    <path d="M162.731 191.577H140.302C140.074 193.694 139.071 195.652 137.486 197.075C135.901 198.497 133.845 199.282 131.716 199.279H56.3311C56.3352 201.318 57.147 203.272 58.5885 204.714C60.0303 206.155 61.9845 206.967 64.0235 206.971H162.731C164.773 206.97 166.731 206.161 168.178 204.719C169.625 203.277 170.441 201.321 170.449 199.279V194.108C170.449 193.433 170.18 192.786 169.703 192.309C169.226 191.832 168.579 191.564 167.905 191.564L162.731 191.577Z"
          stroke="#556980" stroke-width="1.43736" stroke-miterlimit="10"/>
    <path d="M128.097 141.279C128.758 142.193 129.233 143.228 129.496 144.325L140.12 188.635C140.355 189.597 140.417 190.593 140.302 191.577C140.074 193.694 139.071 195.652 137.486 197.075C135.901 198.496 133.845 199.282 131.716 199.279H54.9315C52.9923 199.279 51.1098 198.625 49.5872 197.424C48.0646 196.223 46.991 194.544 46.5395 192.658L35.9342 148.351C35.6292 147.082 35.6162 145.761 35.8957 144.487C36.1752 143.212 36.74 142.018 37.548 140.993C38.3557 139.969 39.3854 139.141 40.5595 138.572C41.7335 138.002 43.0214 137.707 44.3262 137.708H121.104C122.366 137.705 123.612 137.981 124.754 138.516C125.896 139.051 126.906 139.831 127.712 140.802L128.097 141.279Z"
          stroke="#556980" stroke-width="1.43736" stroke-miterlimit="10"/>
    <path d="M116.07 86.1345C115.58 85.5589 115.065 85.0056 114.527 84.4682C111.512 81.4421 107.928 79.0415 103.982 77.4041C100.036 75.7671 95.8052 74.9256 91.5328 74.9282H51.2804C47.0093 74.9266 42.7796 75.7664 38.8332 77.4003C34.8872 79.0342 31.3014 81.4297 28.2814 84.45C25.2614 87.4704 22.8662 91.0562 21.2328 95.0026C19.5993 98.9493 18.7596 103.179 18.7617 107.45V107.682C18.7576 110.712 19.5294 113.694 21.0036 116.341C22.6603 118.028 24.6376 119.367 26.8194 120.278C29.0012 121.19 31.3432 121.656 33.7077 121.649H73.1715C74.3758 121.649 75.5311 122.127 76.3827 122.979C77.2343 123.83 77.7125 124.986 77.7125 126.19C77.7141 127.396 78.1943 128.551 79.0475 129.403C79.9007 130.255 81.0573 130.734 82.2631 130.734H82.3617L92.1052 130.486C92.1052 130.391 92.0861 130.305 92.0861 130.219C91.2438 129.929 90.513 129.384 89.9959 128.658C89.4789 127.933 89.2013 127.065 89.2019 126.174V125.964C89.2028 124.76 89.6814 123.605 90.5327 122.754C91.3843 121.903 92.539 121.424 93.7429 121.423H103.35C108.073 121.423 112.602 119.547 115.942 116.207C119.282 112.867 121.158 108.338 121.158 103.615C121.174 97.4206 119.408 91.3522 116.07 86.1345ZM46.3641 104.976C44.824 104.977 43.3183 104.52 42.0377 103.665C40.7568 102.81 39.7586 101.594 39.169 100.171C38.5798 98.7483 38.4256 97.1828 38.7261 95.6723C39.0266 94.1618 39.7681 92.7743 40.8576 91.6855C41.9468 90.5967 43.3345 89.8557 44.845 89.5555C46.3555 89.2557 47.921 89.4105 49.3438 90.0007C50.7662 90.5909 51.9819 91.5895 52.8364 92.8707C53.6911 94.1519 54.1468 95.6576 54.1456 97.1977C54.143 99.2602 53.3223 101.238 51.8636 102.696C50.4046 104.154 48.427 104.974 46.3641 104.976ZM71.7628 104.976C70.223 104.975 68.7179 104.518 67.438 103.662C66.1583 102.806 65.1608 101.59 64.5725 100.167C63.9839 98.7438 63.8306 97.1783 64.1317 95.6681C64.4329 94.1583 65.1754 92.7715 66.2649 91.6833C67.3543 90.5951 68.7418 89.8545 70.2523 89.5552C71.7628 89.2557 73.328 89.4111 74.7501 90.0014C76.1725 90.5916 77.3876 91.5904 78.242 92.8713C79.0965 94.1522 79.5519 95.6579 79.5506 97.1977C79.5506 98.2197 79.349 99.2323 78.9575 100.176C78.5661 101.121 77.9924 101.979 77.2689 102.701C76.5458 103.424 75.6872 103.996 74.7424 104.386C73.7976 104.777 72.7851 104.977 71.7628 104.976ZM95.953 104.976C94.4133 104.975 92.9088 104.517 91.6292 103.66C90.3499 102.804 89.3529 101.587 88.765 100.164C88.177 98.7416 88.024 97.1761 88.3255 95.6662C88.6273 94.1567 89.3698 92.7699 90.4593 91.6823C91.549 90.5944 92.9365 89.8541 94.447 89.5549C95.9572 89.256 97.5224 89.4112 98.9445 90.0017C100.366 90.5919 101.581 91.5907 102.436 92.8716C103.29 94.1525 103.745 95.6579 103.744 97.1977C103.744 98.2201 103.542 99.2326 103.151 100.177C102.759 101.122 102.185 101.98 101.461 102.702C100.738 103.425 99.8787 103.997 98.9336 104.387C97.9885 104.778 96.9757 104.978 95.953 104.976Z"
          fill="#E6EFF9"/>
    <path d="M121.157 103.618C121.157 108.341 119.281 112.871 115.942 116.21C112.602 119.55 108.072 121.426 103.349 121.426H93.749C92.5454 121.427 91.3913 121.905 90.5401 122.756C89.6888 123.607 89.2095 124.76 89.208 125.964V126.174C89.2073 127.065 89.4849 127.933 90.002 128.658C90.5191 129.384 91.2498 129.929 92.0922 130.219C92.5358 130.373 93.0027 130.45 93.4723 130.448L92.1113 130.486L82.3614 130.734H82.2565C81.0513 130.734 79.8953 130.256 79.0421 129.404C78.1889 128.553 77.7084 127.398 77.7059 126.193C77.7059 124.988 77.2276 123.833 76.3757 122.982C75.5241 122.13 74.3691 121.652 73.1649 121.652H33.7074C28.9844 121.652 24.4549 119.776 21.1153 116.436C17.7756 113.096 15.8994 108.567 15.8994 103.844V103.612C15.8998 99.3433 16.741 95.117 18.3748 91.1735C20.0085 87.2303 22.4031 83.6474 25.4215 80.6296C28.44 77.6118 32.0233 75.2182 35.9668 73.585C39.9103 71.952 44.1372 71.1115 48.4054 71.1122H88.6451C97.2664 71.1128 105.535 74.5377 111.632 80.6334C117.728 86.7292 121.155 94.9965 121.157 103.618Z"
          stroke="#556980" stroke-width="1.43736" stroke-miterlimit="10"/>
    <path d="M221.907 114.913C221.888 114.913 221.879 114.894 221.86 114.894C214.32 112.624 210.65 107.987 209.06 103.542C209.06 103.542 209.06 103.542 209.06 103.523C207.817 100.057 207.845 96.7016 208.294 94.6982C208.562 93.6371 208.732 92.5536 208.802 91.461C208.907 88.3668 206.637 89.1237 200.143 90.4179C197.16 91.0221 195.252 89.8901 194.298 88.281C194.206 88.1407 194.125 87.9929 194.057 87.839C193.612 86.9024 193.427 85.8632 193.523 84.8307"
          stroke="#556980" stroke-width="1.43736" stroke-miterlimit="10"/>
    <path d="M189.786 102.651C189.672 102.489 189.554 102.333 189.439 102.209C188.435 101.061 187.283 101.195 185.484 101.891C185.032 102.063 183.894 102.015 182.994 101.701C182.237 101.43 181.671 100.963 181.928 100.263C181.994 100.119 182.093 99.9926 182.216 99.8928C182.339 99.7929 182.483 99.7226 182.637 99.6877C182.937 99.612 183.241 99.5512 183.547 99.5064C186.635 98.8163 185.945 95.242 185.569 93.0001C184.66 87.3588 185.868 80.719 189.719 76.321C193.961 71.4842 200.9 70.4762 206.761 72.6895C211.916 74.6356 216.765 78.8587 217.77 84.5032C217.77 84.5222 217.77 84.5413 217.789 84.5604C217.808 84.5795 217.789 84.6081 217.789 84.6272C218.384 88.1538 217.789 91.9762 217.099 95.4646C216.686 97.5316 216.842 99.2202 217.417 100.616C219.22 105.186 225.304 106.779 230.207 109.04C241.811 114.386 251.265 123.525 257.638 134.639C262.669 143.454 263.861 148.876 263.584 152.221C263.2 156.715 260.153 157.446 260.153 157.446C257.577 158.969 253.618 157.332 252.823 154.476C252.811 154.445 252.805 154.413 252.804 154.38C252.168 151.935 250.928 148.793 249.262 145.356"
          stroke="#556980" stroke-width="1.43736" stroke-miterlimit="10"/>
    <path d="M193.508 84.8307C193.508 86.532 192.707 88.211 190.964 88.9265C189.006 89.7342 188.211 91.8617 187.924 93.9318C187.524 96.9633 188.177 100.04 189.772 102.648C191.251 105.103 193.658 107.809 197.067 107.809C203.312 107.809 205.99 104.798 205.99 104.798"
          stroke="#556980" stroke-width="1.43736" stroke-miterlimit="10"/>
    <path d="M199.994 94.9081C200.58 94.9081 201.056 94.4327 201.056 93.8459C201.056 93.2596 200.58 92.7838 199.994 92.7838C199.407 92.7838 198.932 93.2596 198.932 93.8459C198.932 94.4327 199.407 94.9081 199.994 94.9081Z"
          fill="#556980"/>
    <path d="M190.651 95.5282C191.238 95.5282 191.713 95.0528 191.713 94.4661C191.713 93.8797 191.238 93.404 190.651 93.404C190.065 93.404 189.589 93.8797 189.589 94.4661C189.589 95.0528 190.065 95.5282 190.651 95.5282Z"
          fill="#556980"/>
    <path d="M195.233 92.8475C195.233 92.8475 194.702 97.042 194.915 97.6175C195.128 98.1931 196.457 97.5349 196.457 97.5349"
          stroke="#556980" stroke-width="1.43736" stroke-miterlimit="10"/>
    <path d="M197.201 101.205C199.475 102.041 201.822 100.976 202.509 98.9308" stroke="#556980" stroke-width="1.43736"
          stroke-miterlimit="10"/>
    <path d="M205.491 95.381C207.033 93.1976 206.47 90.1473 204.234 88.5672C201.998 86.9873 198.935 87.4764 197.393 89.6598C195.85 91.8429 196.413 94.8935 198.649 96.4733C200.885 98.0531 203.948 97.564 205.491 95.381Z"
          stroke="#556980" stroke-width="1.43736" stroke-miterlimit="10"/>
    <path d="M193.07 96.0052C194.612 93.8218 194.05 90.7712 191.814 89.1914C189.577 87.6116 186.514 88.1007 184.972 90.2841C183.429 92.4672 183.992 95.5177 186.228 97.0975C188.464 98.6774 191.527 98.1883 193.07 96.0052Z"
          stroke="#556980" stroke-width="1.43736" stroke-miterlimit="10"/>
    <path d="M188.934 89.7724C189.817 89.7699 190.669 90.1015 191.318 90.7006C191.967 91.3001 192.365 92.1224 192.432 93.0033C192.467 93.4408 192.414 93.881 192.275 94.2972C192.137 94.7138 191.915 95.0976 191.624 95.4264C191.33 95.7597 190.972 96.03 190.571 96.2211C190.17 96.4126 189.734 96.5207 189.29 96.5394H189.112C188.229 96.542 187.377 96.21 186.728 95.6099C186.079 95.0099 185.681 94.1866 185.614 93.3054C185.58 92.8678 185.634 92.4274 185.773 92.0111C185.912 91.5949 186.134 91.2107 186.425 90.8822C186.719 90.5499 187.077 90.2802 187.477 90.0888C187.878 89.8977 188.313 89.7889 188.756 89.7692H188.934V89.7724ZM188.934 89.0505H188.721C188.185 89.0744 187.659 89.206 187.175 89.4369C186.691 89.6681 186.258 89.9941 185.902 90.3957C185.546 90.7973 185.274 91.2664 185.103 91.7748C184.932 92.2833 184.864 92.8211 184.905 93.3563C184.991 94.4165 185.472 95.4055 186.253 96.1276C187.034 96.8498 188.058 97.2521 189.122 97.2549H189.335C189.871 97.2308 190.397 97.0995 190.881 96.8683C191.365 96.6374 191.798 96.3114 192.154 95.9098C192.51 95.5082 192.782 95.0391 192.953 94.5306C193.124 94.0222 193.191 93.4844 193.151 92.9492C193.065 91.889 192.584 90.9 191.802 90.1779C191.021 89.4557 189.998 89.0534 188.934 89.0505Z"
          fill="white"/>
    <path d="M196.537 92.7807L193.93 92.9143" stroke="#556980" stroke-width="1.43736" stroke-miterlimit="10"/>
    <path opacity="0.53"
          d="M204.87 94.9425C206.176 93.0936 205.7 90.5102 203.807 89.1727C201.913 87.8352 199.32 88.2495 198.014 90.0984C196.707 91.9476 197.183 94.5307 199.077 95.8685C200.97 97.206 203.564 96.7916 204.87 94.9425Z"
          fill="white"/>
    <path opacity="0.53"
          d="M192.449 95.5666C193.756 93.7178 193.28 91.1344 191.386 89.7969C189.493 88.459 186.899 88.8737 185.593 90.7225C184.286 92.5717 184.762 95.1548 186.656 96.4923C188.549 97.8302 191.143 97.4155 192.449 95.5666Z"
          fill="white"/>
    <path d="M198.928 107.809L204.719 121.566C204.719 121.566 215.89 124.571 218.606 114.001" stroke="#556980"
          stroke-width="1.43736" stroke-miterlimit="10"/>
    <path d="M89.0556 179.108C93.429 177.728 95.718 172.627 94.1687 167.712C92.6191 162.798 87.8176 159.932 83.4442 161.311C79.071 162.69 76.7817 167.792 78.3314 172.706C79.8806 177.62 84.6821 180.486 89.0556 179.108Z"
          fill="#E6EFF9"/>
    <path d="M197.382 206.971C197.258 195.775 195.284 184.711 194.374 180.196" stroke="#556980" stroke-width="1.43736"
          stroke-miterlimit="10"/>
</svg>
