<svg width="429" height="365" viewBox="0 0 429 365" fill="none" xmlns="http://www.w3.org/2000/svg">
    <path d="M90.0338 100.307C88.8326 102.315 86.3186 103.164 84.1565 103.597C81.3937 104.164 78.5366 104.314 75.7395 104.563L74.1136 104.962C73.8056 105.056 73.5199 105.211 73.2719 105.417C73.0244 105.623 72.8197 105.875 72.6696 106.16C72.5199 106.445 72.4276 106.757 72.3985 107.078C72.3697 107.398 72.404 107.722 72.5006 108.029C73.5066 111.491 74.8905 114.831 76.6275 117.99L74.0535 120.564C73.3242 119.578 73.2899 117.849 72.3118 118.016C71.3723 117.077 70.2569 116.618 69.1029 117.875C66.8463 120.341 67.211 125.468 70.5272 126.884L69.785 130.577C69.5289 131.869 68.833 133.032 67.8163 133.868C66.7996 134.704 65.5242 135.162 64.208 135.163L64.7786 130.792C60.9176 132.744 56.5375 128.522 56.8421 125.043C57.0394 122.658 56.4989 121.011 54.7357 119.282C54.6198 119.166 55.3277 118.737 55.2204 118.621C54.7228 117.115 54.6542 115.356 55.1475 114.361C56.0055 112.585 58.5323 111.547 57.3697 109.608C56.8592 108.763 56.4868 107.842 56.2672 106.879C56.0334 105.603 56.0763 104.292 56.3925 103.034C56.7082 101.776 57.2904 100.6 58.099 99.5863C59.815 97.5271 62.6035 98.0805 64.8815 97.3512C67.6571 96.4932 68.9399 93.5202 71.8442 92.6022C73.2899 92.1431 74.6284 92.3533 76.0741 92.6837C77.2968 92.9668 78.5066 93.2843 79.7078 93.6618C80.909 94.0393 81.9643 94.3525 83.1398 94.0007C84.6927 93.5717 85.8896 92.1217 87.5842 92.1088C88.4293 92.0895 89.2573 92.3538 89.9351 92.8596C91.1878 95.1118 91.1964 98.3808 90.0338 100.307Z"
          fill="#755EC6"/>
    <path d="M36.9417 158.394C36.9417 158.394 -9.76356 106.879 59.018 81.1736C63.0064 79.7111 67.1634 78.757 71.3903 78.3336C82.3684 77.1667 106.637 73.0183 109.434 59.0072"
          stroke="#755EC6" stroke-opacity="0.2" stroke-width="1.76319" stroke-miterlimit="10"/>
    <path d="M233.002 86.2782V86.2658" stroke="#755EC6" stroke-opacity="0.2" stroke-width="1.76319"
          stroke-miterlimit="10"/>
    <path d="M110.454 179.032V179.02" stroke="black" stroke-width="1.76319" stroke-miterlimit="10"/>
    <path d="M73.9382 120.221C73.4808 119.431 72.9369 118.694 72.3165 118.025C71.377 117.085 70.2616 116.626 69.1076 117.883C66.8511 120.35 67.2157 125.476 70.5319 126.892L69.7897 130.586C69.5336 131.877 68.8382 133.04 67.821 133.876C66.8043 134.712 65.5289 135.17 64.2127 135.172"
          stroke="black" stroke-width="1.76319" stroke-linecap="round" stroke-linejoin="round"/>
    <path d="M62.1364 151.517C62.3251 150.084 62.7927 146.322 63.2432 142.735C63.6722 139.41 64.054 136.21 64.2041 135.155L64.779 130.792"
          stroke="black" stroke-width="1.76319" stroke-linecap="round" stroke-linejoin="round"/>
    <path d="M88.6228 108.527C88.6228 108.527 83.1445 108.797 82.0849 113.331" stroke="black" stroke-width="1.76319"
          stroke-miterlimit="10"/>
    <path d="M90.6142 120.509C92.1071 120.47 94.0462 120.251 94.7498 118.737L90.9746 114.571C90.0535 113.551 89.5087 112.246 89.4302 110.873C89.28 108.57 89.5503 104.914 87.3452 102.482"
          stroke="black" stroke-width="1.76319" stroke-miterlimit="10"/>
    <path d="M87.3856 114.742C88.0038 114.058 88.0347 113.079 87.4542 112.555C86.8742 112.03 85.903 112.159 85.2852 112.843C84.667 113.527 84.6361 114.506 85.2166 115.03C85.7966 115.555 86.7678 115.425 87.3856 114.742Z"
          fill="black"/>
    <path d="M87.0136 147.87L84.1694 134.082" stroke="black" stroke-width="1.76319" stroke-miterlimit="10"/>
    <path d="M159.117 209.925L140.785 224.914C162.84 258.548 146.148 264.721 146.148 264.721C142.91 265.341 139.64 265.78 136.354 266.038C120.412 267.188 104.059 263.074 90.9184 253.859C64.3204 235.197 41.1546 197.849 53.5096 165.331C54.5495 162.58 55.8193 159.922 57.3062 157.385C58.5877 155.18 60.2192 153.198 62.1368 151.517C65.4933 148.579 69.6267 146.672 74.0407 146.026C78.4547 145.379 82.9613 146.022 87.0188 147.875C88.5722 148.584 90.0415 149.464 91.3989 150.5C98.3444 155.815 104.659 163.37 110.103 171.298C114.937 178.467 119.287 185.952 123.123 193.7C124.183 195.815 125.144 197.814 125.993 199.646C133.694 196.532 140.15 191.242 146.156 185.528C138.893 199.084 159.117 209.925 159.117 209.925Z"
          fill="#353642"/>
    <path d="M146.289 220.89C145.937 221.161 145.573 221.444 145.208 221.714" stroke="black" stroke-width="1.76319"
          stroke-miterlimit="10"/>
    <path d="M92.0943 163.906C96.9561 173.216 101.818 182.542 106.68 191.886C110.348 198.938 116.547 203.293 125.277 199.951C134.775 196.313 142.437 189.359 149.525 182.272C156.612 175.185 163.793 168.406 174.025 166.579C187.251 164.215 199.765 171.422 208.774 180.53C209.467 181.225 209.905 182.133 210.018 183.107C210.131 184.082 209.912 185.067 209.396 185.901C209.065 186.435 208.622 186.891 208.099 187.239C207.576 187.586 206.984 187.817 206.364 187.915C205.743 188.013 205.109 187.976 204.504 187.807C203.899 187.638 203.337 187.341 202.858 186.935C198.589 183.293 191.644 178.025 186.813 177.956"
          stroke="black" stroke-width="1.76319" stroke-miterlimit="10"/>
    <path d="M173.633 190.453C175.117 191.444 177.176 192.542 178.892 192.542" stroke="black" stroke-width="1.76319"
          stroke-miterlimit="10"/>
    <path d="M192.655 179.762C195.821 181.328 196.975 185.91 194.74 188.647C191.906 192.163 188.355 195.035 184.324 197.072C179.914 199.273 177.083 197.93 172.741 195.245"
          stroke="black" stroke-width="1.76319" stroke-miterlimit="10"/>
    <path d="M185.328 183.868C185.328 183.868 191.6 185.421 191.433 191.508C191.422 191.768 191.375 192.025 191.295 192.272"
          stroke="black" stroke-width="1.76319" stroke-miterlimit="10"/>
    <path d="M180.897 187.703C180.897 187.703 189.31 193.138 185.307 196.557" stroke="black" stroke-width="1.76319"
          stroke-miterlimit="10"/>
    <path d="M343.405 209.007C333.495 236.244 305.752 237.012 302.577 237.012C303.907 234.211 304.267 229.29 301.354 220.667C303.306 217.818 304.333 214.437 304.297 210.983C304.261 207.53 303.164 204.171 301.153 201.362C301.191 201.328 301.213 201.281 301.247 201.246C302.635 201.162 304.011 200.954 305.361 200.624C310.149 199.483 319.587 196.978 327.077 193.451C332.157 191.053 338.081 194.897 337.648 200.504C337.648 200.577 337.648 200.646 337.622 200.727C338.614 200.727 339.591 200.965 340.471 201.424C341.35 201.882 342.106 202.545 342.674 203.358C343.242 204.172 343.605 205.11 343.732 206.093C343.859 207.077 343.747 208.077 343.405 209.007Z"
          fill="#755EC6"/>
    <path d="M216.237 272.889C212.9 278.617 207.705 283.494 202.685 287.75C185.015 302.705 161.93 310.298 138.764 310.594C115.521 310.298 92.3508 302.679 74.5988 287.857C18.507 241.019 28.6443 185.717 37.7177 160.11C38.0372 159.224 38.4698 158.384 39.0047 157.609C39.7141 156.571 40.6351 155.695 41.7072 155.038C42.7793 154.382 43.9781 153.959 45.2252 153.799C49.9871 154.455 54.3114 158.406 53.5478 164.524C53.5478 164.76 53.4534 165.086 53.432 165.322C41.0853 197.84 64.2599 235.189 90.8408 253.85C102.9 262.315 117.666 266.476 132.338 266.206H132.505C133.763 266.18 135.02 266.122 136.276 266.03C144.517 265.429 152.527 263.456 160.459 261.066C169.768 258.282 178.975 254.906 188.275 252.542C191.544 251.71 194.822 250.907 198.117 250.157C200.018 249.767 201.962 249.632 203.899 249.758C215.324 250.53 223.35 260.689 216.237 272.889Z"
          fill="#755EC6" fill-opacity="0.2"/>
    <path d="M219.061 272.889C215.724 278.617 210.524 283.494 205.505 287.75C187.131 303.314 162.888 310.916 138.752 310.594C115.509 310.298 92.3388 302.679 74.5868 287.857C18.5077 241.019 28.645 185.717 37.7184 160.11C38.0379 159.224 38.4705 158.384 39.0054 157.609C39.7148 156.571 40.6358 155.695 41.7079 155.038C42.78 154.382 43.9789 153.959 45.226 153.799C49.9879 154.455 54.3123 158.406 53.5486 164.524C53.5486 164.76 53.4543 165.086 53.4328 165.322C41.086 197.84 64.2608 235.189 90.8416 253.85C102.901 262.315 117.667 266.476 132.339 266.206H132.506C134.717 266.24 136.914 266.182 139.1 266.03C147.341 265.429 155.346 263.456 163.283 261.066C172.592 258.282 181.798 254.906 191.099 252.542C194.364 251.71 197.645 250.907 200.936 250.157C201.914 249.957 202.904 249.823 203.9 249.758C216.745 248.895 226.749 259.702 219.061 272.889Z"
          fill="#755EC6" fill-opacity="0.2"/>
    <path d="M142.625 310.517L148.271 318.505C148.271 318.505 182.432 319.835 201.128 335.528C204.585 338.432 202.518 344.073 198.005 344.073C196.873 344.077 195.776 343.679 194.911 342.949C190.497 339.243 173.633 327.591 135.486 327.239C98.3178 326.892 84.0621 338.393 80.1196 342.585C79.6696 343.058 79.1278 343.435 78.5276 343.69C77.927 343.946 77.2801 344.077 76.6276 344.073H75.894C71.2608 344.073 69.3002 338.222 72.9596 335.382C88.5666 323.245 123.552 319.376 123.552 319.376L129.523 310.367"
          fill="#353642"/>
    <path d="M293.809 266.223C293.809 266.223 304.273 276.163 301.008 306.978C300.77 309.178 300.005 311.288 298.777 313.13L297.64 314.846C295.776 317.638 292.965 319.661 289.725 320.543C282.891 322.409 270.493 326.733 262.835 334.927C259.601 338.398 262.007 344.052 266.752 344.052C267.637 344.054 268.508 343.838 269.289 343.422C270.07 343.006 270.735 342.402 271.227 341.667C274.345 336.973 283.788 327.008 306.563 327.218C332.252 327.454 342.599 337.668 345.916 342.07C346.374 342.684 346.969 343.182 347.653 343.526C348.337 343.87 349.092 344.05 349.858 344.052C350.818 344.05 351.757 343.768 352.559 343.24C353.361 342.713 353.992 341.963 354.374 341.082C354.756 340.201 354.873 339.228 354.71 338.282C354.547 337.335 354.112 336.457 353.457 335.755C343.44 324.871 331.188 320.813 324.427 319.307C321.03 318.575 318.03 316.6 316.014 313.769C314.472 311.585 313.594 309.001 313.487 306.33C313.11 296.776 312.913 273.584 319.386 266.231"
          fill="#353642"/>
    <path d="M160.545 261.079C178.944 252.147 198.914 246.287 218.55 240.77C238.31 235.219 258.262 230.376 278.275 225.824C286.272 224.009 294.341 222.392 302.299 220.345"
          stroke="black" stroke-width="1.76319" stroke-miterlimit="10"/>
    <path d="M177.807 192.418H177.82H177.829" stroke="black" stroke-width="1.76319" stroke-miterlimit="10"/>
    <path d="M175.745 191.255C174.591 192.396 170.472 198.492 169.438 199.586C163.759 205.673 157.725 211.421 151.369 216.798C149.769 218.128 148.074 219.5 146.289 220.89C145.938 221.161 145.573 221.444 145.208 221.714C133.111 230.895 117.323 239.732 102.737 234.069C102.351 233.928 101.974 233.765 101.6 233.597C79.2281 223.58 63.5911 198.492 62.2269 174.275C62.1797 173.486 62.154 172.701 62.1454 171.924C62.0253 165.305 63.0034 158.685 69.3526 155.193"
          stroke="black" stroke-width="1.76319" stroke-miterlimit="10"/>
    <path d="M53.5435 165.236L53.6336 164.533C55.0579 153.113 38.8417 149.26 34.9936 160.11C25.9245 185.712 15.783 241.002 71.8875 287.849C108.099 318.097 166.727 318.308 202.801 287.75C207.82 283.499 213.016 278.612 216.358 272.885C224.813 258.402 211.9 246.789 197.336 250.354"
          stroke="black" stroke-width="1.76319" stroke-miterlimit="10"/>
    <path d="M142.625 310.517L148.271 318.505C148.271 318.505 182.432 319.835 201.128 335.528C204.585 338.432 202.518 344.073 198.005 344.073C196.873 344.077 195.776 343.679 194.911 342.949C190.497 339.243 173.633 327.591 135.486 327.239C98.3178 326.892 84.0621 338.393 80.1196 342.585C79.6696 343.058 79.1278 343.435 78.5276 343.69C77.927 343.946 77.2801 344.077 76.6276 344.073H75.894C71.2608 344.073 69.3002 338.222 72.9596 335.382C88.5666 323.245 123.552 319.376 123.552 319.376L129.523 310.367"
          stroke="black" stroke-width="1.76319" stroke-miterlimit="10"/>
    <path d="M123.552 193.014C137.872 189.153 143.771 168.951 146.147 155.369" stroke="black" stroke-width="1.76319"
          stroke-miterlimit="10"/>
    <path d="M110.09 171.311C114.069 170.79 117.847 169.258 121.063 166.86C124.28 164.463 126.829 161.28 128.464 157.617C128.807 156.888 128.973 156.09 128.951 155.285C128.929 154.48 128.718 153.692 128.336 152.984C126.774 150.092 124.445 146.742 124.998 143.276C125.397 140.83 127.409 139.11 129.717 138.557C130.887 138.25 132.119 138.271 133.278 138.617C133.972 138.814 134.615 139.162 135.158 139.638C135.701 140.113 136.131 140.704 136.418 141.367C136.98 142.684 136.311 143.988 135.277 144.846C134.243 145.704 133.033 146.008 131.772 146.352C131.609 146.399 131.163 146.493 130.67 146.588"
          stroke="black" stroke-width="1.76319" stroke-miterlimit="10"/>
    <path d="M302.282 220.337C302.282 220.337 330.511 214.425 335.813 205.91C336.807 204.357 337.427 202.595 337.623 200.762"
          stroke="black" stroke-width="1.76319" stroke-miterlimit="10"/>
    <path d="M163.38 205.794C212.616 200.564 268.189 201.337 268.189 201.337H299.377C301.393 201.34 303.402 201.103 305.362 200.633C310.149 199.492 319.587 196.991 327.078 193.46C332.157 191.062 338.082 194.906 337.648 200.517C337.648 200.586 337.648 200.659 337.623 200.74C338.612 200.741 339.587 200.98 340.465 201.436C341.342 201.894 342.097 202.556 342.665 203.367C343.232 204.177 343.596 205.113 343.725 206.094C343.854 207.075 343.744 208.073 343.405 209.003C332.886 237.913 302.282 237.008 302.282 237.008C298.369 237.124 294.465 237.278 290.548 237.48C256.044 239.157 221.844 244.001 188.365 252.551C179.064 254.914 169.858 258.286 160.549 261.075C152.612 263.473 144.594 265.433 136.353 266.034C120.411 267.188 104.058 263.07 90.9176 253.855C62.1359 233.657 37.3656 191.547 57.3054 157.364C64.3453 145.301 80.2869 141.997 91.398 150.5C107.069 162.491 119.588 185.85 126.01 199.629"
          stroke="black" stroke-width="1.76319" stroke-miterlimit="10"/>
    <path d="M342.753 266.223H274.233" stroke="black" stroke-width="1.76319" stroke-miterlimit="10"/>
    <path d="M260.403 252.383C260.413 248.715 261.874 245.201 264.467 242.607C267.061 240.013 270.575 238.551 274.243 238.539H342.771C346.439 238.549 349.955 240.011 352.549 242.605C355.143 245.199 356.605 248.715 356.615 252.383"
          stroke="black" stroke-width="1.76319" stroke-miterlimit="10"/>
    <path d="M357.962 257.291C357.965 258.465 357.736 259.629 357.288 260.714C356.84 261.8 356.182 262.786 355.352 263.616C354.521 264.446 353.535 265.103 352.449 265.551C351.363 265.998 350.2 266.227 349.026 266.223H267.945C265.915 266.031 264.042 265.05 262.728 263.491C261.414 261.932 260.764 259.92 260.918 257.888C261.072 255.855 262.017 253.963 263.551 252.62C265.085 251.277 267.085 250.59 269.12 250.706H350.201C351.641 250.704 353.059 251.05 354.335 251.716C355.611 252.381 356.707 253.346 357.529 254.528C357.815 255.421 357.961 256.353 357.962 257.291Z"
          fill="#755EC6" fill-opacity="0.2"/>
    <path d="M357.961 257.291C357.965 258.465 357.736 259.629 357.288 260.714C356.841 261.799 356.182 262.786 355.351 263.616C354.521 264.446 353.535 265.104 352.449 265.551C351.363 265.998 350.2 266.227 349.025 266.223H267.944C266.755 266.249 265.572 266.037 264.465 265.6C263.358 265.162 262.35 264.508 261.5 263.676C260.649 262.844 259.973 261.85 259.512 260.753C259.05 259.656 258.813 258.479 258.813 257.289C258.813 256.099 259.05 254.921 259.512 253.824C259.973 252.727 260.649 251.733 261.5 250.901C262.35 250.069 263.358 249.415 264.465 248.978C265.572 248.541 266.755 248.329 267.944 248.355H349.025C350.913 248.354 352.753 248.951 354.28 250.06C355.807 251.169 356.945 252.733 357.528 254.528C357.815 255.421 357.961 256.353 357.961 257.291Z"
          stroke="black" stroke-width="1.76319" stroke-miterlimit="10"/>
    <path d="M145.994 155.052L145.831 156.429C145.756 157.054 145.455 157.63 144.985 158.048C144.515 158.466 143.908 158.697 143.278 158.698H134.368C133.739 158.697 133.131 158.466 132.661 158.048C132.191 157.63 131.89 157.054 131.815 156.429L130.666 146.562C131.159 146.467 131.605 146.373 131.768 146.326C133.029 145.983 134.252 145.691 135.273 144.82C136.294 143.949 136.989 142.675 136.414 141.341C136.127 140.678 135.697 140.088 135.153 139.612C134.61 139.137 133.969 138.788 133.274 138.591C132.115 138.245 130.883 138.225 129.713 138.531L129.443 136.18C129.403 135.821 129.44 135.457 129.549 135.113C129.66 134.769 129.841 134.452 130.082 134.182C130.322 133.912 130.617 133.696 130.947 133.548C131.277 133.4 131.634 133.324 131.996 133.323H145.668C146.029 133.324 146.386 133.402 146.715 133.55C147.044 133.698 147.338 133.914 147.579 134.183C147.819 134.453 148 134.77 148.11 135.114C148.219 135.458 148.256 135.821 148.216 136.18L147.899 138.861"
          stroke="black" stroke-width="1.76319" stroke-miterlimit="10"/>
    <path d="M147.182 144.992L147.169 145.086" stroke="black" stroke-width="1.76319" stroke-miterlimit="10"/>
    <path d="M146.512 150.658V150.62" stroke="black" stroke-width="1.76319" stroke-miterlimit="10"/>
    <path d="M146.641 150.659C146.603 150.652 146.563 150.652 146.525 150.659C146.471 150.653 146.416 150.653 146.362 150.659C145.806 150.661 145.271 150.872 144.863 151.249C144.455 151.627 144.204 152.144 144.159 152.698C144.114 153.252 144.279 153.803 144.621 154.241C144.963 154.68 145.457 154.974 146.006 155.065C146.242 155.112 146.486 155.112 146.722 155.065C147.793 154.893 148.771 154.353 149.485 153.537C150.437 151.971 151.099 150.246 151.437 148.445C151.443 148.427 151.443 148.407 151.437 148.389C151.699 147.062 151.798 145.708 151.733 144.357C151.733 143.778 151.66 143.203 151.591 142.641C151.461 141.7 151.031 140.827 150.366 140.15C149.7 139.473 148.836 139.027 147.898 138.878C147.851 138.878 147.795 138.878 147.748 138.853C145.946 138.63 143.419 139.312 142.951 141.345C142.522 143.181 144.513 144.756 146.147 144.897C146.147 144.897 146.576 144.953 147.181 144.992C148.391 145.073 150.403 145.06 151.733 144.357C151.929 144.255 152.113 144.133 152.282 143.992"
          stroke="black" stroke-width="1.76319" stroke-miterlimit="10"/>
    <path d="M148.52 145.09H148.224H145.938H144.929C144.248 145.092 143.593 145.355 143.099 145.826C142.605 146.295 142.31 146.936 142.274 147.617C142.241 148.279 142.454 148.929 142.872 149.442C143.291 149.956 143.884 150.296 144.539 150.397C147.499 150.873 150.88 150.972 151.459 148.321"
          stroke="black" stroke-width="1.76319" stroke-miterlimit="10"/>
    <path d="M293.809 266.223C293.809 266.223 304.273 276.163 301.008 306.978C300.77 309.178 300.005 311.288 298.777 313.13L297.64 314.846C295.776 317.638 292.965 319.661 289.725 320.543C282.891 322.409 270.493 326.733 262.835 334.927C259.601 338.398 262.007 344.052 266.752 344.052C267.637 344.054 268.508 343.838 269.289 343.422C270.07 343.006 270.735 342.402 271.227 341.667C274.345 336.973 283.788 327.008 306.563 327.218C332.252 327.454 342.599 337.668 345.916 342.07C346.374 342.684 346.969 343.182 347.653 343.526C348.337 343.87 349.092 344.05 349.858 344.052C350.818 344.05 351.757 343.768 352.559 343.24C353.361 342.713 353.992 341.963 354.374 341.082C354.756 340.201 354.873 339.228 354.71 338.282C354.547 337.335 354.112 336.457 353.457 335.755C343.44 324.871 331.188 320.813 324.427 319.307C321.03 318.575 318.03 316.6 316.014 313.769C314.472 311.585 313.594 309.001 313.487 306.33C313.11 296.776 312.913 273.584 319.386 266.231"
          stroke="black" stroke-width="1.76319" stroke-miterlimit="10"/>
    <path d="M272.058 194.198V194.893C272.058 199.651 268.223 200.47 264.911 200.551L200.814 202.044C198.004 202.113 195.64 199.659 195.58 196.587V196.459C195.58 193.456 197.794 190.946 200.565 190.882C200.565 190.882 236.425 189.869 264.19 189.106C264.722 190.787 266.009 192.083 267.622 193.1C268.959 193.899 270.503 194.281 272.058 194.198Z"
          stroke="black" stroke-width="1.76319" stroke-miterlimit="10"/>
    <path d="M306.13 126.373C306.134 127.156 305.954 127.928 305.607 128.63L276.941 187.394C276.605 188.076 276.123 188.677 275.53 189.153C274.938 189.63 274.248 189.971 273.509 190.152C272.325 190.456 271.072 190.328 269.974 189.792C269.094 189.359 268.353 188.686 267.836 187.852C267.32 187.017 267.048 186.055 267.053 185.073C267.055 184.832 267.072 184.591 267.104 184.352C267.18 183.82 267.339 183.303 267.576 182.821L296.237 124.048C296.755 122.993 297.615 122.145 298.676 121.641C299.738 121.138 300.938 121.008 302.083 121.275C303.228 121.541 304.248 122.187 304.978 123.107C305.708 124.028 306.105 125.168 306.104 126.343L306.13 126.373Z"
          stroke="black" stroke-width="1.76319" stroke-miterlimit="10"/>
    <path d="M74.0587 120.573C74.0244 120.453 73.9772 120.337 73.9386 120.221C73.9 120.105 73.8442 119.972 73.8099 119.844"
          stroke="black" stroke-width="1.76319" stroke-linecap="round" stroke-linejoin="round"/>
    <path d="M74.0578 120.577L74.9373 119.694L76.619 117.99" stroke="black" stroke-width="1.76319"
          stroke-linecap="round" stroke-linejoin="round"/>
    <path d="M83.9549 122.902C83.9549 122.902 85.0831 126.27 89.3946 126.497" stroke="black" stroke-width="1.76319"
          stroke-miterlimit="10"/>
    <path d="M64.7794 130.792C60.9184 132.744 56.5383 128.522 56.8429 125.043C57.0403 122.658 56.4997 121.011 54.7365 119.282C54.6207 119.166 54.5135 119.046 54.4105 118.93C53.7391 118.2 53.3028 117.285 53.1574 116.303C53.012 115.322 53.1647 114.319 53.5954 113.426C54.3976 111.56 56.1265 110.466 54.9253 108.454C54.3981 107.584 54.0128 106.635 53.7842 105.644C53.5444 104.329 53.5894 102.979 53.9159 101.683C54.2419 100.387 54.8421 99.1766 55.6761 98.132C57.4435 95.987 60.3221 96.579 62.6859 95.8282C65.5302 94.9231 66.8601 91.8643 69.8459 90.9248C71.3388 90.4572 72.7245 90.6674 74.2174 91.0063C75.4744 91.3023 76.7357 91.6326 77.9583 92.0187C79.181 92.4048 80.2964 92.7352 81.519 92.3705C83.1192 91.9029 84.3504 90.4314 86.0922 90.4186C87.8339 90.4057 89.1724 91.431 89.9532 92.8639C91.1887 95.1118 91.1973 98.3808 90.0347 100.32C88.8335 102.328 86.3195 103.177 84.1574 103.61C81.3946 104.177 78.5375 104.327 75.7404 104.576L74.1145 104.975C73.4959 105.167 72.9785 105.596 72.676 106.168C72.374 106.741 72.311 107.41 72.5014 108.029C73.5074 111.491 74.8914 114.832 76.6284 117.99"
          stroke="black" stroke-width="1.76319" stroke-miterlimit="10"/>
    <path d="M76.6202 131.285C76.6202 131.285 85.1316 137.518 89.9836 134.082C94.8356 130.646 92.0943 120.573 92.0943 120.573"
          stroke="black" stroke-width="1.76319" stroke-linecap="round" stroke-linejoin="round"/>
    <path d="M136.761 129.02C136.761 129.02 133.145 126.575 135.444 124.078C137.744 121.581 134.681 118.286 134.681 118.286"
          stroke="black" stroke-width="1.76319" stroke-miterlimit="10"/>
    <path d="M140.099 129.445C140.099 129.445 142.492 127.827 140.957 126.171C139.421 124.515 141.467 122.31 141.467 122.31"
          stroke="black" stroke-width="1.76319" stroke-miterlimit="10"/>
    <path d="M156.594 106.141C182.638 106.141 203.75 85.029 203.75 58.9857C203.75 32.9424 182.638 11.83 156.594 11.83C130.551 11.83 109.439 32.9424 109.439 58.9857C109.439 85.029 130.551 106.141 156.594 106.141Z"
          stroke="#755EC6" stroke-opacity="0.2" stroke-width="1.76319" stroke-miterlimit="10"/>
    <path d="M156.593 84.8844C170.896 84.8844 182.491 73.289 182.491 58.9857C182.491 44.682 170.896 33.087 156.593 33.087C142.289 33.087 130.694 44.682 130.694 58.9857C130.694 73.289 142.289 84.8844 156.593 84.8844Z"
          stroke="#755EC6" stroke-opacity="0.2" stroke-width="1.76319" stroke-miterlimit="10"/>
    <path d="M156.594 63.4259C159.047 63.4259 161.035 61.4379 161.035 58.9857C161.035 56.5336 159.047 54.5456 156.594 54.5456C154.142 54.5456 152.154 56.5336 152.154 58.9857C152.154 61.4379 154.142 63.4259 156.594 63.4259Z"
          stroke="#755EC6" stroke-opacity="0.2" stroke-width="1.76319" stroke-miterlimit="10"/>
    <path d="M165.787 44.1595L158.931 55.2105" stroke="#755EC6" stroke-opacity="0.2" stroke-width="1.76319"
          stroke-miterlimit="10"/>
    <path d="M156.594 33.087V37.6944" stroke="#755EC6" stroke-opacity="0.2" stroke-width="1.76319"
          stroke-miterlimit="10"/>
    <path d="M182.493 58.9857H178.126" stroke="#755EC6" stroke-opacity="0.2" stroke-width="1.76319"
          stroke-miterlimit="10"/>
    <path d="M156.594 84.8887V80.41" stroke="#755EC6" stroke-opacity="0.2" stroke-width="1.76319"
          stroke-miterlimit="10"/>
    <path d="M130.691 58.9857H134.629" stroke="#755EC6" stroke-opacity="0.2" stroke-width="1.76319"
          stroke-miterlimit="10"/>
    <path d="M201.788 137.39C211.479 137.39 219.334 129.534 219.334 119.844C219.334 110.153 211.479 102.298 201.788 102.298C192.098 102.298 184.242 110.153 184.242 119.844C184.242 129.534 192.098 137.39 201.788 137.39Z"
          fill="#755EC6"/>
    <g clip-path="url(#clip0_1_2318)">
        <path d="M211.779 118.802C209.148 114.924 208.416 113.879 208.167 113.532C207.729 112.676 207.008 111.999 206.128 111.614C205.247 111.228 204.26 111.16 203.335 111.419C202.788 111.614 202.293 111.932 201.888 112.348C201.483 112.764 201.178 113.267 200.997 113.819L198.629 114.62C198.155 114.295 197.614 114.081 197.045 113.994C196.476 113.908 195.896 113.951 195.346 114.121C194.453 114.477 193.711 115.131 193.245 115.971C192.779 116.812 192.618 117.788 192.789 118.734C192.794 119.137 192.866 120.467 193.118 125.115C193.144 126.068 193.521 126.979 194.178 127.671C194.834 128.363 195.723 128.788 196.674 128.865C197.137 128.872 197.597 128.782 198.023 128.601C198.45 128.421 198.834 128.153 199.152 127.815C199.495 127.464 199.762 127.047 199.937 126.588C200.111 126.129 200.19 125.64 200.168 125.149L200.229 123.589L205.258 121.888L206.172 123.03C206.451 123.446 206.812 123.8 207.234 124.071C207.655 124.341 208.128 124.523 208.622 124.603C209.172 124.692 209.737 124.646 210.266 124.469C210.615 124.35 210.941 124.171 211.23 123.941C211.94 123.303 212.388 122.425 212.489 121.477C212.591 120.528 212.338 119.575 211.779 118.802ZM210.083 122.525C209.915 122.652 209.722 122.742 209.517 122.79C209.313 122.838 209.1 122.843 208.893 122.805C208.631 122.765 208.381 122.669 208.159 122.524C207.937 122.379 207.748 122.188 207.606 121.965L206.27 120.252C206.155 120.11 206.001 120.005 205.826 119.951C205.651 119.898 205.464 119.897 205.289 119.951L199.021 122.071C198.851 122.134 198.704 122.245 198.597 122.391C198.49 122.536 198.428 122.71 198.418 122.891L198.323 125.21C198.337 125.454 198.302 125.699 198.22 125.929C198.138 126.16 198.01 126.371 197.844 126.551C197.706 126.702 197.538 126.822 197.351 126.905C197.164 126.988 196.963 127.031 196.758 127.033C196.267 126.961 195.818 126.717 195.49 126.344C195.163 125.971 194.979 125.495 194.97 124.999C194.844 122.727 194.635 119.015 194.621 118.765L194.61 118.549C194.61 118.549 194.539 117.453 194.78 116.96C195.022 116.466 195.429 116.073 195.931 115.85C196.273 115.753 196.634 115.746 196.98 115.829C197.326 115.912 197.644 116.084 197.904 116.326C198.025 116.427 198.169 116.496 198.324 116.526C198.479 116.555 198.639 116.544 198.788 116.493L202.024 115.399C202.177 115.35 202.314 115.262 202.423 115.143C202.531 115.025 202.606 114.88 202.641 114.724C202.697 114.371 202.846 114.039 203.072 113.762C203.298 113.484 203.593 113.272 203.928 113.145C204.461 113.02 205.022 113.086 205.512 113.332C206.001 113.578 206.551 114.51 206.551 114.51L206.664 114.656C206.664 114.656 208.964 117.995 210.243 119.876C210.527 120.268 210.666 120.746 210.637 121.229C210.608 121.712 210.412 122.17 210.083 122.525Z"
              fill="white"/>
        <path d="M203.471 117.672C203.305 117.728 203.16 117.831 203.053 117.97C202.947 118.108 202.884 118.275 202.872 118.45C202.861 118.624 202.901 118.798 202.988 118.949C203.075 119.101 203.206 119.223 203.362 119.3C203.519 119.378 203.695 119.407 203.868 119.384C204.041 119.362 204.204 119.288 204.335 119.173C204.467 119.058 204.561 118.907 204.607 118.738C204.652 118.569 204.646 118.391 204.59 118.225C204.554 118.115 204.496 118.013 204.42 117.925C204.344 117.837 204.251 117.765 204.147 117.713C204.043 117.662 203.929 117.632 203.813 117.624C203.697 117.617 203.58 117.633 203.471 117.672Z"
              fill="white"/>
        <path d="M205.386 116.311C205.843 116.156 206.089 115.66 205.934 115.202C205.779 114.744 205.283 114.499 204.825 114.654C204.367 114.808 204.122 115.305 204.276 115.763C204.431 116.221 204.928 116.466 205.386 116.311Z"
              fill="white"/>
        <path d="M197.162 117.747C196.85 117.853 196.576 118.049 196.375 118.31C196.174 118.571 196.055 118.886 196.033 119.215C196.011 119.544 196.087 119.872 196.252 120.158C196.417 120.443 196.662 120.674 196.958 120.82C197.253 120.966 197.585 121.021 197.912 120.979C198.239 120.936 198.546 120.797 198.794 120.58C199.042 120.363 199.22 120.077 199.306 119.759C199.391 119.441 199.381 119.104 199.275 118.792C199.133 118.373 198.831 118.028 198.435 117.832C198.039 117.636 197.581 117.605 197.162 117.747Z"
              fill="white"/>
    </g>
    <g opacity="0.72">
        <path opacity="0.72"
              d="M245.091 113.182C250.664 113.182 255.182 108.664 255.182 103.091C255.182 97.518 250.664 93 245.091 93C239.518 93 235 97.518 235 103.091C235 108.664 239.518 113.182 245.091 113.182Z"
              fill="#755EC6"/>
        <path d="M245 96.3333C243.681 96.3333 242.393 96.7243 241.296 97.4569C240.2 98.1894 239.345 99.2306 238.841 100.449C238.336 101.667 238.204 103.007 238.461 104.301C238.719 105.594 239.354 106.782 240.286 107.714C241.218 108.646 242.406 109.281 243.699 109.539C244.993 109.796 246.333 109.664 247.551 109.159C248.769 108.655 249.811 107.8 250.543 106.704C251.276 105.607 251.667 104.319 251.667 103C251.667 102.125 251.494 101.258 251.159 100.449C250.824 99.6399 250.333 98.905 249.714 98.286C249.095 97.6669 248.36 97.1758 247.551 96.8408C246.742 96.5058 245.875 96.3333 245 96.3333ZM245 108.333C243.945 108.333 242.914 108.021 242.037 107.435C241.16 106.848 240.476 106.016 240.073 105.041C239.669 104.066 239.563 102.994 239.769 101.96C239.975 100.925 240.483 99.9746 241.229 99.2288C241.975 98.4829 242.925 97.9749 243.96 97.7691C244.994 97.5634 246.066 97.669 247.041 98.0726C248.016 98.4763 248.848 99.1599 249.435 100.037C250.021 100.914 250.333 101.945 250.333 103C250.333 104.414 249.771 105.771 248.771 106.771C247.771 107.771 246.414 108.333 245 108.333Z"
              fill="white"/>
        <path d="M248 104.653C247.924 104.609 247.841 104.58 247.754 104.568C247.667 104.556 247.578 104.561 247.494 104.584C247.409 104.606 247.329 104.645 247.259 104.698C247.189 104.751 247.131 104.818 247.087 104.893C246.876 105.26 246.572 105.565 246.205 105.777C245.839 105.989 245.423 106.101 245 106.101C244.577 106.101 244.161 105.989 243.795 105.777C243.428 105.565 243.124 105.26 242.913 104.893C242.825 104.74 242.679 104.627 242.508 104.581C242.336 104.535 242.154 104.558 242 104.647C241.846 104.735 241.734 104.881 241.688 105.052C241.641 105.224 241.665 105.406 241.753 105.56C242.085 106.127 242.559 106.598 243.128 106.925C243.698 107.251 244.343 107.423 245 107.423C245.657 107.423 246.302 107.251 246.872 106.925C247.441 106.598 247.915 106.127 248.247 105.56C248.334 105.407 248.356 105.226 248.31 105.056C248.264 104.886 248.152 104.741 248 104.653Z"
              fill="white"/>
        <path d="M242.667 102.333C243.219 102.333 243.667 101.886 243.667 101.333C243.667 100.781 243.219 100.333 242.667 100.333C242.114 100.333 241.667 100.781 241.667 101.333C241.667 101.886 242.114 102.333 242.667 102.333Z"
              fill="white"/>
        <path d="M247.333 102.333C247.886 102.333 248.333 101.886 248.333 101.333C248.333 100.781 247.886 100.333 247.333 100.333C246.781 100.333 246.333 100.781 246.333 101.333C246.333 101.886 246.781 102.333 247.333 102.333Z"
              fill="white"/>
    </g>
    <path d="M231.676 148.542L227.084 158.253C225.418 161.775 226.923 165.979 230.445 167.644L240.155 172.237C243.677 173.902 247.881 172.397 249.546 168.876L254.139 159.165C255.804 155.644 254.3 151.439 250.778 149.774L241.067 145.182C237.546 143.516 233.342 145.021 231.676 148.542Z"
          fill="#755EC6"/>
    <path d="M282.737 116.691C283.254 117.631 283.628 118.643 283.848 119.694C284.242 121.615 284.129 123.605 283.521 125.469C282.913 127.334 281.832 129.008 280.382 130.328C279.232 131.345 277.769 132.139 276.607 133.203C275.759 133.935 275.134 134.891 274.805 135.961C274.745 136.327 274.598 136.673 274.376 136.969C273.698 137.699 273.033 136.54 272.445 136.343C271.499 136.035 270.471 136.085 269.558 136.485C267.159 137.488 264.487 137.63 261.994 136.888C259.502 136.146 257.343 134.564 255.883 132.412C254.424 130.26 253.754 127.669 253.986 125.079C254.219 122.488 255.34 120.059 257.16 118.201C258.958 116.369 261.309 115.198 263.595 114.005C265.594 112.945 267.585 111.817 269.756 111.182C274.844 109.659 280.275 112.195 282.737 116.691Z"
          fill="#755EC6"/>
    <path d="M262.249 129.942C263.599 129.942 264.694 128.848 264.694 127.497C264.694 126.147 263.599 125.052 262.249 125.052C260.898 125.052 259.803 126.147 259.803 127.497C259.803 128.848 260.898 129.942 262.249 129.942Z"
          fill="white"/>
    <path d="M268.832 126.42C270.183 126.42 271.278 125.325 271.278 123.975C271.278 122.624 270.183 121.53 268.832 121.53C267.482 121.53 266.387 122.624 266.387 123.975C266.387 125.325 267.482 126.42 268.832 126.42Z"
          fill="white"/>
    <path d="M275.011 123.117C276.362 123.117 277.457 122.022 277.457 120.672C277.457 119.321 276.362 118.226 275.011 118.226C273.661 118.226 272.566 119.321 272.566 120.672C272.566 122.022 273.661 123.117 275.011 123.117Z"
          fill="white"/>
    <path d="M200.455 41.6498C200.455 41.6498 216.556 91.4482 278.533 88.7583C299.125 86.1843 323.634 88.7583 345.457 117.501C378.632 161.225 365.312 209.933 350.236 240.851"
          stroke="#755EC6" stroke-opacity="0.2" stroke-width="1.76319" stroke-miterlimit="10"/>
    <g opacity="0.54">
        <path d="M290.043 61.2079C289.982 61.9591 289.866 62.7047 289.695 63.4387L287.765 71.8128C287.173 74.3868 286.508 77.0809 284.672 78.9599C281.24 82.4606 275.534 81.6584 270.763 80.5987L259.052 77.999C256.362 77.4027 253.629 76.7892 251.218 75.455C248.807 74.1208 246.714 71.9372 246.156 69.2388C245.727 67.2482 246.186 65.189 246.624 63.2071L248.391 55.1676C248.979 52.5335 249.639 49.7536 251.54 47.836C254.925 44.4255 260.549 45.2019 265.225 46.2187L277.22 48.827C284.453 50.3885 290.617 53.7433 290.043 61.2079Z"
              fill="#755EC6"/>
    </g>
    <path d="M37.1001 344.052H407.55" stroke="black" stroke-width="1.76319" stroke-miterlimit="10"/>
    <path d="M254.365 57.8823C254.691 56.258 256.273 55.2059 257.897 55.5324C259.522 55.8589 260.574 57.4404 260.247 59.0648L258.474 67.8883C258.147 69.5126 256.566 70.5647 254.941 70.2382C253.317 69.9117 252.265 68.3302 252.591 66.7058L254.365 57.8823Z"
          fill="white"/>
    <path d="M261.42 63.3805C261.746 61.7562 263.328 60.7041 264.952 61.0306C266.576 61.3571 267.629 62.9386 267.302 64.563L266.317 69.4649C265.99 71.0893 264.409 72.1414 262.784 71.8148C261.16 71.4883 260.108 69.9068 260.434 68.2824L261.42 63.3805Z"
          fill="white"/>
    <path d="M268.874 61.8189C269.2 60.1945 270.782 59.1424 272.406 59.469C274.03 59.7955 275.083 61.377 274.756 63.0014L273.179 70.8445C272.853 72.4688 271.271 73.5209 269.647 73.1944C268.023 72.8679 266.971 71.2864 267.297 69.662L268.874 61.8189Z"
          fill="white"/>
    <path d="M277.505 59.474C277.832 57.8496 279.413 56.7975 281.038 57.1241C282.662 57.4506 283.714 59.0321 283.387 60.6565L281.022 72.4211C280.696 74.0455 279.114 75.0976 277.49 74.771C275.866 74.4445 274.814 72.863 275.14 71.2386L277.505 59.474Z"
          fill="white"/>
    <path d="M247.637 156.196C247.223 154.911 246.469 153.762 245.455 152.87C244.442 151.978 243.206 151.376 241.879 151.128C240.552 150.88 239.183 150.994 237.915 151.459C236.648 151.925 235.53 152.723 234.679 153.771C233.827 154.819 233.275 156.077 233.079 157.413C232.884 158.749 233.052 160.113 233.567 161.361C234.082 162.609 234.924 163.695 236.005 164.504C237.086 165.313 238.365 165.815 239.708 165.958L240.043 162.801C239.269 162.719 238.531 162.429 237.908 161.962C237.285 161.496 236.799 160.87 236.502 160.15C236.205 159.43 236.108 158.644 236.221 157.873C236.333 157.103 236.652 156.377 237.143 155.773C237.634 155.169 238.279 154.708 239.01 154.44C239.74 154.172 240.53 154.106 241.295 154.249C242.061 154.392 242.773 154.739 243.358 155.253C243.942 155.768 244.377 156.43 244.616 157.171L247.637 156.196Z"
          fill="white"/>
    <defs>
        <clipPath id="clip0_1_2318">
            <rect width="20" height="20" fill="white" transform="translate(189 113.409) rotate(-18.6897)"/>
        </clipPath>
    </defs>
</svg>
