<svg width="318" height="222" viewBox="0 0 318 222" fill="none" xmlns="http://www.w3.org/2000/svg">
    <path d="M287.153 209.479H196.45H202.734L260.101 208.814C270.706 207.891 278.179 197.481 274.15 187.624C273.454 185.921 274.182 185.447 273.32 183.805C264.302 166.81 248.666 152.965 230.947 144.922C231.386 144.84 231.828 144.779 232.279 144.719C228.98 143.065 225.581 141.616 222.103 140.381C220.259 139.722 218.392 139.127 216.529 138.605C207.367 136.021 194.987 137.201 191.089 147.354C187.81 155.877 192.164 166.173 200.352 169.906L215.06 175.533C214.935 175.349 214.824 175.164 214.71 174.97L227.5 179.862C227.754 180.04 227.947 180.291 228.054 180.582C228.161 180.873 228.177 181.19 228.099 181.49C228.021 181.79 227.854 182.06 227.619 182.262C227.384 182.464 227.093 182.589 226.784 182.621L195.722 186.017C191.244 186.469 185.638 188.343 182.337 191.427C179.93 193.655 177.901 196.688 177.92 200.527C175.89 200.68 173.872 200.964 171.878 201.376C168.835 202.032 165.738 203.162 165.518 205.017C165.086 208.741 170.374 209.499 173.707 209.499L152.617 209.416C154.881 209.416 155.161 209.397 156.662 207.901C158.163 206.405 159.842 205.253 159.842 202.987L160.026 195.724C160.026 194.228 160.383 193.019 158.888 193.019H145.532C146.076 193.034 146.613 192.891 147.078 192.609C147.543 192.327 147.917 191.917 148.155 191.427C148.166 191.416 148.173 191.402 148.175 191.386C148.842 190.145 148.995 188.359 148.871 186.669L149.027 186.116L149.427 184.639L157.912 179.642C157.975 179.605 158.037 179.565 158.096 179.521C162.523 176.813 163.076 171.972 161.559 167.643C161.527 167.561 161.508 167.488 161.476 167.417C161.407 167.233 161.343 167.058 161.263 166.883C160.859 165.896 160.357 164.951 159.766 164.063C157.575 160.638 154.395 157.847 151.374 157.118C150.526 156.927 149.66 156.831 148.791 156.832C159.305 146.966 171.417 138.198 185.724 135.282C198.242 132.694 211.188 133.032 223.553 136.269C238.003 140.117 251.016 148.105 261.335 158.894C275.225 173.398 281.722 190.342 287.153 209.479Z"
          fill="#353642"/>
    <path d="M145.835 165.874C145.336 166.857 144.52 167.642 143.519 168.102C142.665 168.532 141.76 168.853 140.826 169.057C139.287 169.314 138.743 168.34 137.761 167.386C137.201 166.844 136.556 166.397 135.853 166.062C135.431 165.854 134.969 165.743 134.499 165.736C134.03 165.729 133.564 165.826 133.137 166.02C132.847 166.15 132.601 166.36 132.429 166.626C132.256 166.892 132.164 167.202 132.164 167.519C132.227 168.687 133.836 169.61 134.746 170.094C135.933 170.656 137.167 171.111 138.435 171.456C141.542 172.411 136.368 174.4 135.28 174.524C132.954 174.84 130.593 174.784 128.284 174.359C128.947 175.841 129.455 177.387 129.801 178.974C130.16 180.492 130.58 182.319 130.284 183.846C129.925 185.641 128.713 186.975 127.219 187.879L121.409 163.621C123.551 162.599 125.881 162.032 128.253 161.954C130.625 161.876 132.987 162.29 135.191 163.169C135.926 163.44 136.724 163.494 137.489 163.325C138.254 163.156 138.954 162.77 139.506 162.214L140.101 161.638C140.929 161.458 141.792 161.526 142.581 161.835C143.99 162.367 146.598 164.076 145.835 165.874Z"
          fill="#755EC6"/>
    <path d="M151.801 193H127.811C127.568 195.264 126.497 197.36 124.804 198.882C123.111 200.404 120.916 201.246 118.64 201.246H37.9885C37.9936 203.429 38.8624 205.521 40.4047 207.064C41.947 208.608 44.0372 209.478 46.2184 209.483H151.794C153.976 209.475 156.065 208.605 157.609 207.062C159.152 205.52 160.024 203.429 160.034 201.246V195.708C160.034 194.99 159.749 194.301 159.241 193.793C158.733 193.285 158.045 193 157.328 193H151.801Z"
          stroke="black" stroke-width="1.56492" stroke-miterlimit="10"/>
    <path d="M114.753 139.156C115.462 140.133 115.971 141.24 116.251 142.415L127.616 189.836C127.867 190.865 127.933 191.932 127.81 192.984C127.568 195.249 126.497 197.344 124.804 198.866C123.111 200.389 120.915 201.23 118.639 201.23H36.4903C34.416 201.229 32.4027 200.529 30.7743 199.243C29.1459 197.958 27.9971 196.161 27.513 194.142L16.1604 146.721C15.8326 145.362 15.8172 143.947 16.1155 142.582C16.4137 141.217 17.0179 139.937 17.8824 138.839C18.7468 137.742 19.8491 136.855 21.1059 136.246C22.3627 135.637 23.7412 135.322 25.1376 135.324H107.274C108.623 135.322 109.956 135.618 111.178 136.19C112.4 136.763 113.481 137.598 114.343 138.637L114.753 139.156Z"
          stroke="black" stroke-width="1.56492" stroke-miterlimit="10"/>
    <path d="M74.8989 181.279C79.5773 179.802 82.0259 174.34 80.3679 169.078C78.7101 163.816 73.5738 160.747 68.8957 162.223C64.2176 163.699 61.769 169.162 63.4267 174.424C65.0845 179.686 70.2208 182.755 74.8989 181.279Z"
          fill="#755EC6" fill-opacity="0.15"/>
    <path d="M232.729 144.442C225.482 145.654 219.91 148.971 216.171 155.836C212.822 161.978 212.431 169.473 216.002 175.568L201.422 169.973C192.979 166.103 190.009 157.503 193.392 148.672C197.415 138.15 210.179 136.928 219.627 139.607C221.551 140.148 223.472 140.766 225.373 141.447C227.858 142.338 230.31 143.337 232.729 144.442Z"
          fill="#353642"/>
    <path d="M62.9255 135.33C68.71 127.849 76.6863 122.365 85.7389 119.646C84.533 116.404 83.5761 113.075 82.8769 109.687C75.3657 73.1249 98.8564 37.3806 135.379 29.8408C171.901 22.3011 207.628 45.8018 215.159 82.3546C216 86.4507 216.469 90.6149 216.558 94.7956C219.167 93.8692 221.837 93.1247 224.549 92.5678C256.467 85.9638 287.694 106.517 294.283 138.468C296.143 147.452 295.883 156.746 293.524 165.611C291.165 174.476 286.772 182.669 280.695 189.537"
          stroke="#755EC6" stroke-opacity="0.15" stroke-width="1.56492" stroke-miterlimit="10"/>
    <path d="M142.537 193.003H144.792C145.44 193.018 146.083 192.883 146.67 192.607C147.257 192.33 147.771 191.921 148.172 191.412C148.183 191.399 148.19 191.385 148.194 191.37C149.003 190.263 149.372 188.895 149.228 187.532L149.043 186.096L148.891 184.938L149.444 184.62L158.113 179.502L158.698 179.165C162.93 176.673 163.236 172.026 161.576 167.624C161.547 167.545 161.525 167.472 161.496 167.398C161.423 167.214 161.35 167.042 161.28 166.867C160.855 165.889 160.355 164.946 159.782 164.047C157.591 160.619 154.414 157.831 151.39 157.102C150.543 156.909 149.677 156.813 148.808 156.816C146.995 156.816 144.992 157.163 143.939 158.21C155.184 147.138 168.321 136.746 184.122 133.522C196.645 130.938 209.596 131.282 221.964 134.528C236.414 138.375 249.439 146.374 259.758 157.163C260.302 157.729 260.833 158.302 261.348 158.888C274.281 173.114 282.53 191.084 287.742 209.473"
          stroke="black" stroke-width="1.56492" stroke-miterlimit="10"/>
    <path d="M146.502 209.483H302.1" stroke="black" stroke-width="1.56492" stroke-miterlimit="10"/>
    <path d="M185.674 209.479H203.329" stroke="black" stroke-width="1.04328" stroke-miterlimit="10"/>
    <path d="M200.433 169.824C192.241 166.09 187.891 155.794 191.166 147.274C195.071 137.119 207.451 135.938 216.606 138.522C218.476 139.046 220.334 139.638 222.181 140.298C242.765 147.618 261.47 162.815 271.684 182.07C272.546 183.7 273.232 185.374 273.929 187.08C274.868 189.372 275.255 191.852 275.059 194.321C274.863 196.791 274.09 199.179 272.802 201.294C271.514 203.409 269.746 205.191 267.643 206.496C265.54 207.802 263.159 208.593 260.694 208.808L203.33 209.479H185.674C184.114 209.48 182.594 208.991 181.325 208.083C180.057 207.174 179.105 205.891 178.602 204.413C176.665 198.684 179.168 194.362 182.332 191.418C185.633 188.35 189.939 186.596 194.416 186.144L226.642 182.885C226.951 182.854 227.242 182.728 227.478 182.526C227.714 182.324 227.882 182.055 227.96 181.754C228.039 181.454 228.024 181.137 227.917 180.845C227.811 180.554 227.618 180.301 227.364 180.123L200.433 169.824Z"
          stroke="black" stroke-width="1.56492" stroke-miterlimit="10"/>
    <path d="M190.825 192.401C187.884 194.094 184.859 196.746 183.848 200.103C182.684 203.97 185.416 207.484 188.52 209.495"
          stroke="black" stroke-width="1.56492" stroke-miterlimit="10"/>
    <path d="M193.98 196.838C191.236 199.451 188.857 202.764 190.444 206.704C190.898 207.785 191.604 208.742 192.505 209.492"
          stroke="black" stroke-width="1.56492" stroke-miterlimit="10"/>
    <path d="M199.364 201.949C199.364 201.949 193.045 206.65 197.058 209.47" stroke="black" stroke-width="1.56492"
          stroke-miterlimit="10"/>
    <path d="M183.146 209.031L183.257 209.483H173.062C169.729 209.483 165.112 208.97 165.547 205.247C165.983 201.523 177.918 200.508 177.918 200.508"
          stroke="black" stroke-width="1.56492" stroke-miterlimit="10"/>
    <path d="M164.858 91.9376L143.161 95.1871L146.942 97.8542L154.014 103.522C155.121 104.302 154.844 106.142 155.458 107.259C155.691 108.945 155.426 110.662 154.696 112.2C153.966 113.737 152.803 115.027 151.35 115.912C149.897 116.796 148.217 117.236 146.517 117.176C144.817 117.117 143.172 116.562 141.784 115.578L124.723 103.567C122.84 102.266 121.328 100.495 120.338 98.4302C118.942 91.4761 123.225 83.7423 131.468 82.517L155.184 78.9524L151.686 76.2344L140.916 67.8449C139.993 67.1301 139.223 66.2371 138.651 65.2192C138.412 63.4962 138.692 61.7403 139.456 60.1776C140.22 58.6149 141.433 57.3161 142.94 56.4478C144.446 55.5796 146.177 55.1815 147.911 55.3046C149.645 55.4275 151.303 56.0662 152.672 57.1385L171.886 72.097C173.457 73.3048 174.727 74.8601 175.597 76.6418C176.907 83.3636 172.716 90.7569 164.858 91.9376Z"
          fill="#755EC6"/>
    <path d="M148.894 184.935C148.894 184.935 148.232 179.111 145.99 177.058" stroke="black" stroke-width="1.56492"
          stroke-miterlimit="10"/>
    <path d="M121.187 164.028C123.351 162.964 125.715 162.366 128.125 162.272C130.535 162.179 132.938 162.593 135.179 163.487C135.914 163.759 136.713 163.813 137.479 163.644C138.245 163.474 138.947 163.089 139.5 162.532L143.93 158.191"
          stroke="black" stroke-width="1.56492" stroke-miterlimit="10"/>
    <path d="M135.268 188.77L138.966 190.434C139.049 190.469 139.137 190.485 139.226 190.483C139.315 190.48 139.403 190.459 139.483 190.42C139.563 190.382 139.635 190.327 139.693 190.259C139.75 190.192 139.793 190.113 139.819 190.027L140.401 188.709"
          stroke="black" stroke-width="1.56492" stroke-miterlimit="10"/>
    <path d="M135.872 181.418C136.182 182.13 136.29 182.914 136.183 183.683C136.077 184.453 135.76 185.178 135.268 185.778"
          stroke="black" stroke-width="1.04328" stroke-miterlimit="10"/>
    <path d="M144.261 193C144.843 192.137 144.84 190.053 144.69 189.215C144.595 188.684 143.701 188.493 143.606 189.028C143.345 190.52 141.663 192.815 140.108 193"
          stroke="black" stroke-width="1.56492" stroke-miterlimit="10"/>
    <path d="M136.793 187.373C139.416 187.373 141.541 185.245 141.541 182.621C141.541 179.997 139.416 177.869 136.793 177.869C134.171 177.869 132.046 179.997 132.046 182.621C132.046 185.245 134.171 187.373 136.793 187.373Z"
          stroke="black" stroke-width="1.56492" stroke-miterlimit="10"/>
    <path d="M135.204 187.096L134.358 189.476C133.771 189.267 133.148 189.175 132.526 189.207C131.903 189.238 131.293 189.392 130.729 189.66C130.166 189.928 129.661 190.304 129.243 190.767C128.826 191.231 128.503 191.772 128.294 192.36"
          stroke="black" stroke-width="1.56492" stroke-miterlimit="10"/>
    <path opacity="0.53"
          d="M136.794 186.644C139.014 186.644 140.814 184.843 140.814 182.621C140.814 180.399 139.014 178.598 136.794 178.598C134.574 178.598 132.775 180.399 132.775 182.621C132.775 184.843 134.574 186.644 136.794 186.644Z"
          fill="white"/>
    <path d="M127.2 188.191C128.695 187.287 129.903 185.963 130.263 184.161C130.561 182.631 130.142 180.807 129.782 179.289C129.437 177.702 128.929 176.156 128.265 174.674C130.574 175.098 132.936 175.153 135.261 174.836C136.346 174.715 141.523 172.736 138.416 171.771C137.149 171.427 135.916 170.97 134.73 170.406C133.815 169.932 132.209 169.009 132.151 167.838C132.148 167.521 132.236 167.21 132.405 166.943C132.574 166.676 132.818 166.464 133.105 166.332C133.533 166.139 133.999 166.043 134.469 166.051C134.938 166.059 135.4 166.172 135.821 166.38C136.526 166.712 137.171 167.159 137.729 167.704C138.715 168.659 139.252 169.613 140.798 169.368C141.731 169.167 142.634 168.846 143.485 168.414C144.488 167.954 145.306 167.169 145.806 166.186C146.576 164.394 143.962 162.685 142.544 162.172C141.756 161.863 140.894 161.792 140.066 161.969"
          stroke="black" stroke-width="1.56492" stroke-miterlimit="10"/>
    <path d="M164.858 91.9376L143.161 95.1871L146.942 97.8542L151.833 101.291C152.793 101.942 153.614 102.778 154.247 103.75C154.882 104.721 155.315 105.81 155.524 106.951C155.733 108.093 155.713 109.264 155.464 110.398C155.216 111.531 154.744 112.604 154.077 113.553C153.409 114.502 152.56 115.309 151.578 115.925C150.596 116.542 149.5 116.957 148.356 117.146C147.212 117.334 146.042 117.293 144.914 117.024C143.786 116.754 142.723 116.263 141.787 115.578L124.727 103.567C122.843 102.266 121.332 100.495 120.341 98.4302C116.713 90.8905 120.955 80.8493 130.435 79.433L149.251 76.6131L151.687 76.2344L140.916 67.8449C140.012 67.1406 139.255 66.2647 138.689 65.2676C138.123 64.2705 137.758 63.1712 137.616 62.0331C137.475 60.895 137.558 59.7403 137.862 58.6343C138.167 57.5287 138.685 56.4937 139.39 55.5885C140.093 54.6837 140.968 53.9262 141.965 53.3594C142.961 52.7929 144.059 52.4282 145.196 52.2865C146.334 52.1446 147.487 52.2283 148.592 52.5329C149.697 52.8371 150.731 53.3565 151.636 54.0608L170.849 69.0193C173.308 70.8914 174.994 73.6033 175.584 76.6386C176.907 83.3636 172.716 90.7569 164.858 91.9376Z"
          stroke="black" stroke-width="1.56492" stroke-miterlimit="10"/>
    <path d="M117.234 128.853L117.024 123.306L114.566 125.827C114.148 126.253 113.579 126.496 112.984 126.504C112.387 126.511 111.813 126.281 111.386 125.865C110.959 125.447 110.716 124.878 110.709 124.281C110.702 123.685 110.931 123.11 111.347 122.682L115.752 118.182C116.206 117.717 116.786 117.395 117.42 117.257C118.055 117.119 118.716 117.17 119.322 117.404C119.928 117.638 120.451 118.045 120.829 118.574C121.206 119.103 121.42 119.731 121.444 120.381L121.651 126.04L123.463 123.993C123.659 123.771 123.897 123.59 124.163 123.461C124.429 123.331 124.718 123.255 125.013 123.237C125.309 123.219 125.605 123.26 125.885 123.357C126.164 123.454 126.422 123.605 126.643 123.802C126.865 123.998 127.046 124.236 127.176 124.503C127.305 124.769 127.381 125.058 127.399 125.354C127.417 125.649 127.377 125.945 127.281 126.225C127.184 126.505 127.033 126.764 126.837 126.985L123.266 131.017C122.81 131.538 122.209 131.909 121.54 132.082C120.87 132.256 120.164 132.224 119.514 131.99C118.863 131.757 118.297 131.333 117.891 130.773C117.484 130.214 117.255 129.545 117.234 128.853Z"
          fill="#755EC6" fill-opacity="0.15"/>
    <path d="M135.659 138.86L138.277 138.274L136.861 137.319C136.622 137.157 136.456 136.907 136.4 136.623C136.344 136.339 136.402 136.045 136.563 135.804C136.724 135.564 136.974 135.398 137.258 135.342C137.542 135.287 137.836 135.346 138.076 135.508L140.601 137.198C140.863 137.373 141.067 137.621 141.189 137.911C141.312 138.201 141.346 138.521 141.288 138.831C141.23 139.14 141.083 139.426 140.864 139.652C140.645 139.879 140.365 140.035 140.057 140.104L137.377 140.709L138.512 141.393C138.634 141.467 138.741 141.564 138.826 141.679C138.911 141.794 138.972 141.925 139.006 142.064C139.04 142.203 139.047 142.347 139.025 142.489C139.004 142.63 138.955 142.766 138.881 142.889C138.732 143.136 138.491 143.314 138.21 143.384C137.93 143.454 137.634 143.409 137.386 143.261L135.16 141.915C134.874 141.744 134.646 141.49 134.505 141.187C134.365 140.885 134.318 140.547 134.372 140.217C134.426 139.888 134.577 139.582 134.807 139.34C135.036 139.098 135.333 138.93 135.659 138.86Z"
          fill="#755EC6" fill-opacity="0.15"/>
    <path d="M129.042 154.159L129.255 152.408L128.355 153.076C128.28 153.133 128.194 153.173 128.103 153.196C128.012 153.22 127.917 153.224 127.824 153.211C127.731 153.197 127.641 153.166 127.56 153.117C127.48 153.069 127.409 153.005 127.353 152.93C127.241 152.777 127.193 152.586 127.22 152.399C127.248 152.211 127.348 152.041 127.5 151.927L129.09 150.734C129.255 150.611 129.453 150.538 129.66 150.526C129.866 150.514 130.071 150.563 130.25 150.667C130.428 150.771 130.573 150.925 130.665 151.11C130.757 151.294 130.793 151.503 130.769 151.708L130.552 153.497L131.223 152.943C131.296 152.883 131.38 152.838 131.47 152.81C131.56 152.783 131.654 152.774 131.748 152.783C131.841 152.792 131.932 152.82 132.015 152.864C132.098 152.908 132.172 152.969 132.232 153.041C132.291 153.114 132.336 153.198 132.364 153.288C132.391 153.378 132.4 153.473 132.391 153.566C132.382 153.66 132.355 153.751 132.31 153.834C132.266 153.917 132.205 153.99 132.133 154.05L130.81 155.139C130.641 155.273 130.435 155.355 130.22 155.373C130.004 155.391 129.788 155.345 129.599 155.24C129.409 155.135 129.255 154.976 129.156 154.784C129.057 154.591 129.018 154.374 129.042 154.159Z"
          fill="#755EC6" fill-opacity="0.15"/>
    <path d="M232.728 144.661L232.595 144.887C232.493 144.824 232.387 144.769 232.277 144.722L232.728 144.661Z"
          fill="#353642"/>
</svg>
