<svg width="206" height="206" viewBox="0 0 206 206" fill="none" xmlns="http://www.w3.org/2000/svg">
    <path d="M133.426 168.696C135.642 168.696 137.798 168.597 139.892 168.399C154.032 167.095 165.211 161.521 172.646 153.738C176.579 149.682 179.553 144.796 181.349 139.44C183.042 134.369 183.536 128.974 182.791 123.681C177.654 87.1898 134.505 104.935 152.594 82.7402C170.683 60.5457 135.271 32.3176 121.684 38.9981C108.096 45.6787 123.08 59.9669 89.5023 53.2121C55.9243 46.4574 62.8727 76.1358 62.8727 76.1358"
          stroke="#E6EFF9" stroke-width="0.99292" stroke-miterlimit="10"/>
    <path d="M43.0228 137.202C43.0228 137.202 27.6449 126.175 21.708 138.37C21.708 138.37 27.9519 116.242 49.2481 108.327C49.2481 108.327 55.3354 104.941 55.6032 106.986C55.871 109.032 57.6365 110.076 58.409 110.052C59.1815 110.027 65.7034 110.435 65.93 109.46C66.1566 108.486 65.724 105.567 68.9582 105.546C72.1924 105.526 89.7416 109.837 94.7597 114.394C94.7597 114.394 86.0253 124.939 90.6954 136.566L86.7607 135.612C86.7607 135.612 89.1874 156.624 85.8791 168.846H28.7347C28.7347 168.846 34.447 169.565 40.3057 165.385L48.8135 154.467C48.8135 154.467 52.5441 148.815 60.1661 148.007C60.1661 148.007 64.5045 147.533 64.4633 145.471C64.4221 143.409 66.0268 146.792 68.1713 143.811C68.4329 143.811 73.6447 144.112 73.6447 144.112C73.6447 144.112 77.5587 144.478 78.2941 140.985C79.0296 137.491 81.7405 112.969 80.7661 111.496C79.7918 110.023 79.4189 110.004 71.1954 110.054C62.9719 110.103 55.7454 108.463 54.6989 112.555C53.6524 116.646 52.4432 132.147 52.4432 132.147C52.4432 132.147 47.8082 133.361 44.2774 138.381C44.2897 138.379 43.0228 140.826 43.0228 137.202Z"
          fill="#27262D"/>
    <path d="M43.0234 129.756V139.409" stroke="#27262D" stroke-width="0.99292" stroke-miterlimit="10"/>
    <path d="M86.498 134.582C95.5723 139.403 120.651 149.251 121.541 111.37C121.541 111.37 120.461 101.422 123.275 100.125C126.089 98.8267 130.627 94.717 124.783 84.7672L128.596 80.9624C129.111 80.4322 129.395 79.719 129.384 78.9799C129.374 78.2405 129.07 77.5358 128.54 77.0206C128.009 76.5054 127.296 76.222 126.557 76.2325C125.818 76.2432 125.113 76.547 124.598 77.0773L117.019 85.1113C117.019 85.1113 115.921 83.0513 113.974 84.1245C112.028 85.1978 104.888 89.7524 108.13 99.2635L99.6965 123.489"
          stroke="#27262D" stroke-width="0.99292" stroke-miterlimit="10"/>
    <path d="M117.008 85.1071C117.008 85.1071 119.029 88.1827 114.728 91.3263" stroke="#27262D" stroke-width="0.99292"
          stroke-miterlimit="10"/>
    <path d="M126.026 87.1569C126.026 87.1569 127.285 91.11 122.207 93.6603C120.411 94.5625 118.439 92.6632 119.288 90.8401C119.303 90.8133 119.315 90.7845 119.329 90.7557"
          stroke="#27262D" stroke-width="0.99292" stroke-miterlimit="10"/>
    <path d="M127.564 92.039C127.564 92.039 126.454 95.8994 123.415 96.0848C120.727 96.2476 121.178 93.5057 121.178 93.5057"
          stroke="#27262D" stroke-width="0.99292" stroke-miterlimit="10"/>
    <path d="M75.5808 89.6206C75.3748 89.6741 75.245 89.5032 75.0534 89.5361C72.2992 89.0335 70.2515 86.8581 70.0208 85.8116C70.0991 86.3822 71.1456 86.3246 70.9684 86.9076C70.9355 87.0188 70.8695 86.9755 70.816 87.0826C70.7295 87.2886 70.7315 87.0064 70.61 87.1918C69.9343 86.1927 69.5429 85.6963 69.4234 85.1463C69.5046 85.7367 69.4568 86.3375 69.2833 86.9076C69.2514 87.019 69.2094 87.1274 69.1577 87.231C68.7457 88.2033 67.8867 89.0252 66.4508 89.2292C66.0907 89.2747 65.7274 89.2864 65.3652 89.2642C64.3352 89.2045 63.4453 89.1447 62.6872 89.1118C60.1534 88.9985 59.245 89.19 59.5292 90.8257C59.6858 91.5656 59.9079 92.2901 60.1926 92.9907C60.6952 94.3132 61.0454 96.604 60.5304 99.0986V99.1131C59.933 102.018 58.0419 104.263 53.9899 106.372C53.272 106.743 52.5316 107.068 51.7733 107.347C44.7426 109.955 27.9247 116.561 20.9537 140.787C20.212 143.368 19.6579 145.716 19.2665 147.861L19.0749 147.75C14.3142 144.897 11.2098 138.496 12.1533 132.99C12.623 130.256 14.4028 128.349 16.6853 126.913C18.288 125.92 20.0019 125.106 21.4378 123.88C26.1964 119.816 22.3916 113.496 25.0263 108.636C27.9968 103.169 32.6483 99.799 38.7212 99.5209C40.2497 99.5868 41.9698 99.7661 43.6384 99.6857C46.061 99.7722 48.5371 99.5745 50.3107 97.9862C51.7074 96.7502 51.9979 94.7355 52.5273 93.0546C53.1235 91.159 53.6205 89.2337 54.0167 87.2866C54.379 85.4404 55.0549 83.6701 56.0149 82.0521C57.0513 80.2989 58.5128 78.835 60.2647 77.7962C61.7928 76.9336 63.4964 76.4287 65.2478 76.3192C66.8426 76.4131 68.3938 76.8758 69.7798 77.6705C70.253 77.9503 70.7004 78.2714 71.1167 78.6305C74.1841 81.2467 75.6529 85.6757 75.5808 89.6206Z"
          fill="#755EC6"/>
    <path d="M122.12 95.8541C122.12 95.8541 121.138 97.0736 121.675 98.2314C122.213 99.3891 123.548 99.6589 124.846 99.1522"
          stroke="#27262D" stroke-width="0.99292" stroke-miterlimit="10"/>
    <path d="M124.779 84.7672L122.063 87.4802" stroke="#27262D" stroke-width="0.99292" stroke-miterlimit="10"/>
    <path d="M52.4541 131.881L54.6645 112.826C54.7539 112.055 55.1237 111.344 55.7031 110.828C56.2828 110.312 57.0318 110.027 57.808 110.027H78.1073C78.5514 110.027 78.9906 110.12 79.3964 110.301C79.802 110.481 80.1652 110.745 80.4621 111.076C80.7591 111.406 80.983 111.795 81.1196 112.218C81.2562 112.641 81.3023 113.087 81.255 113.529L78.2968 140.987C78.213 141.763 77.8453 142.481 77.2641 143.003C76.6832 143.524 75.9299 143.813 75.1491 143.813H67.8856"
          stroke="#27262D" stroke-width="0.99292" stroke-miterlimit="10"/>
    <path d="M76.4463 114.88C76.9036 114.88 77.2744 114.51 77.2744 114.052C77.2744 113.595 76.9036 113.224 76.4463 113.224C75.989 113.224 75.6182 113.595 75.6182 114.052C75.6182 114.51 75.989 114.88 76.4463 114.88Z"
          fill="#27262D"/>
    <path d="M62.7766 136.302C64.919 136.784 65.3475 136.792 67.426 137.101C68.7362 137.297 71.7314 137.46 71.785 135.427C71.8344 133.641 69.83 132.592 68.4148 132.022C66.7814 131.4 65.0723 131.001 63.3328 130.833C62.6159 130.751 61.8957 130.694 61.1719 130.664C56.1558 130.458 50.3692 131.671 46.9146 135.596C38.9115 144.676 28.2695 150.514 28.2695 150.514"
          stroke="#27262D" stroke-width="0.99292" stroke-miterlimit="10"/>
    <path d="M68.5128 137.202C69.5428 137.639 71.2876 138.57 70.5728 140.354C70.2473 141.178 69.6561 141.471 68.8444 141.59C67.0914 141.844 65.2106 141.471 63.4884 141.11C62.8519 140.976 61.723 140.731 61.0947 140.558"
          stroke="#27262D" stroke-width="0.99292" stroke-miterlimit="10"/>
    <path d="M66.6822 141.631C66.6822 141.631 68.5547 141.609 68.1036 143.35C67.3599 146.234 61.5816 144.927 58.8789 144.322"
          stroke="#27262D" stroke-width="0.99292" stroke-miterlimit="10"/>
    <path d="M66.7979 105.703C75.6023 106.088 89.0191 108.669 101.185 119.194" stroke="#27262D" stroke-width="0.99292"
          stroke-miterlimit="10"/>
    <path d="M133.426 168.698L28.7344 168.854" stroke="#27262D" stroke-width="0.99292" stroke-miterlimit="10"/>
    <path d="M86.498 130.643C86.498 130.643 88.558 149.816 86.498 168.698" stroke="#27262D" stroke-width="0.99292"
          stroke-miterlimit="10"/>
    <path opacity="0.54"
          d="M177.41 121.886L195.515 75.4931C195.739 74.5953 195.756 73.6584 195.564 72.7533C195.373 71.8481 194.977 70.9986 194.408 70.2691C193.838 69.5399 193.11 68.9497 192.279 68.5439C191.447 68.1378 190.534 67.9269 189.609 67.9267H117.684C116.069 67.9265 114.501 68.4699 113.233 69.4696C111.964 70.4692 111.07 71.8669 110.692 73.4372L90.8669 119.82C90.6517 120.715 90.6424 121.648 90.8393 122.547C91.0365 123.446 91.4351 124.289 92.0049 125.013C92.5747 125.736 93.3012 126.32 94.1296 126.722C94.9579 127.124 95.8668 127.333 96.7874 127.333H170.432C172.036 127.333 173.594 126.797 174.858 125.81C176.123 124.823 177.02 123.442 177.41 121.886Z"
          fill="white"/>
    <path d="M177.41 121.886L195.515 75.4931C195.739 74.5953 195.756 73.6584 195.564 72.7533C195.373 71.8481 194.977 70.9986 194.408 70.2691C193.838 69.5399 193.11 68.9497 192.279 68.5439C191.447 68.1378 190.534 67.9269 189.609 67.9267H117.684C116.069 67.9265 114.501 68.4699 113.233 69.4696C111.964 70.4692 111.07 71.8669 110.692 73.4372L90.8669 119.82C90.6517 120.715 90.6424 121.648 90.8393 122.547C91.0365 123.446 91.4351 124.289 92.0049 125.013C92.5747 125.736 93.3012 126.32 94.1296 126.722C94.9579 127.124 95.8668 127.333 96.7874 127.333H170.432C172.036 127.333 173.594 126.797 174.858 125.81C176.123 124.823 177.02 123.442 177.41 121.886Z"
          fill="#755EC6"/>
    <path d="M177.41 121.886L195.515 75.4931C195.739 74.5953 195.756 73.6584 195.564 72.7533C195.373 71.8481 194.977 70.9986 194.408 70.2691C193.838 69.5399 193.11 68.9497 192.279 68.5439C191.447 68.1378 190.534 67.9269 189.609 67.9267H117.684C116.069 67.9265 114.501 68.4699 113.233 69.4696C111.964 70.4692 111.07 71.8669 110.692 73.4372L90.8669 119.82C90.6517 120.715 90.6424 121.648 90.8393 122.547C91.0365 123.446 91.4351 124.289 92.0049 125.013C92.5747 125.736 93.3012 126.32 94.1296 126.722C94.9579 127.124 95.8668 127.333 96.7874 127.333H170.432C172.036 127.333 173.594 126.797 174.858 125.81C176.123 124.823 177.02 123.442 177.41 121.886Z"
          stroke="#27262D" stroke-width="0.99292" stroke-linecap="square" stroke-linejoin="round"/>
    <path d="M174.761 120.008L191.465 77.207C191.672 76.3791 191.687 75.5149 191.51 74.6802C191.333 73.8453 190.969 73.0619 190.444 72.3891C189.919 71.7165 189.247 71.1722 188.481 70.7975C187.714 70.423 186.872 70.2281 186.018 70.2277H119.66C118.17 70.2273 116.723 70.7287 115.553 71.651C114.383 72.5734 113.557 73.8628 113.21 75.3118L94.9191 118.102C94.7207 118.928 94.7121 119.788 94.8942 120.618C95.0761 121.448 95.4438 122.225 95.9697 122.892C96.4956 123.559 97.1659 124.098 97.9302 124.469C98.6945 124.84 99.5329 125.032 100.382 125.032H168.325C169.804 125.031 171.241 124.537 172.407 123.626C173.573 122.716 174.401 121.442 174.761 120.008Z"
          fill="#755EC6"/>
    <path d="M124.447 78.0969C125.327 76.7765 126.766 76.1894 127.663 76.7847C128.559 77.3801 128.571 78.9354 127.691 80.2558C127.555 80.4587 127.401 80.6491 127.23 80.8244L133.75 94.5893C134.78 93.8951 135.933 93.7241 136.753 94.27C137.283 94.6223 137.577 95.2217 137.67 95.918L142.124 94.4142L146.019 93.1123C146.431 92.9701 146.866 92.8342 147.29 92.7003C147.45 92.222 147.673 91.7669 147.952 91.3469C149.188 89.4929 151.208 88.6689 152.465 89.4929C153.722 90.3169 153.738 92.4737 152.537 94.3174L159.953 104.459C161.57 103.132 163.476 102.722 164.796 103.6C166.592 104.795 166.619 107.913 164.856 110.565C164.786 110.67 164.706 110.756 164.631 110.857L169.575 117.612C169.59 117.632 169.608 117.657 169.621 117.678C169.746 117.866 169.832 118.078 169.875 118.3C169.919 118.522 169.918 118.75 169.873 118.972C169.828 119.194 169.74 119.404 169.613 119.592C169.487 119.779 169.325 119.94 169.137 120.065C168.948 120.19 168.737 120.277 168.515 120.32C168.293 120.363 168.064 120.363 167.842 120.318C167.621 120.273 167.41 120.185 167.222 120.058C167.035 119.932 166.874 119.77 166.749 119.581L162.359 112.958C160.971 113.764 159.496 113.918 158.414 113.197C156.696 112.056 156.614 109.164 158.144 106.605L151.035 95.8789C149.987 96.5916 148.829 96.7729 147.999 96.2229C147.535 95.8958 147.219 95.3991 147.119 94.8406C146.942 94.888 146.767 94.9395 146.59 94.9889L142.628 96.0704L137.559 97.4362C137.404 98.0439 137.147 98.6211 136.801 99.144C135.565 100.998 133.546 101.822 132.287 100.988C131.029 100.153 131.01 97.9677 132.244 96.1116C132.428 95.8424 132.635 95.5894 132.862 95.3556L126.655 81.3209C125.907 81.8297 125.081 81.9615 124.49 81.5681C123.582 80.9748 123.567 79.4195 124.447 78.0969Z"
          fill="white"/>
    <path d="M171.662 78.8571H181.28C181.72 78.8571 182.151 78.7287 182.519 78.4881C182.887 78.2473 183.178 77.9045 183.355 77.5016C183.411 77.378 183.441 77.2441 183.443 77.1081C183.441 76.8455 183.335 76.5944 183.149 76.4092C182.963 76.224 182.711 76.1199 182.448 76.1193H172.216C172.704 76.933 172.461 78.0578 171.662 78.8571Z"
          fill="#E6EFF9"/>
    <path d="M165.443 77.8703C165.444 78.1324 165.548 78.3833 165.734 78.5683C165.919 78.7532 166.17 78.8571 166.432 78.8571H171.662C172.462 78.0578 172.705 76.933 172.225 76.1193H167.606C167.167 76.1191 166.737 76.2468 166.368 76.4866C166 76.7266 165.709 77.0686 165.532 77.4707C165.476 77.5968 165.446 77.7325 165.443 77.8703Z"
          fill="#755EC6"/>
    <path d="M167.849 78.8571C167.876 78.91 167.908 78.9603 167.943 79.0075C168.629 79.9448 170.117 80.0375 171.274 79.1888C171.411 79.0878 171.541 78.977 171.662 78.8571C172.461 78.0578 172.704 76.9331 172.224 76.1194C172.197 76.0672 172.165 76.0176 172.129 75.971C171.45 75.0276 169.962 74.941 168.805 75.7836C168.666 75.8862 168.534 75.9984 168.411 76.1194C167.618 76.9207 167.375 78.0393 167.849 78.8571Z"
          fill="white"/>
    <path d="M163.024 83.9062C163.026 84.1686 163.132 84.4195 163.319 84.6043C163.505 84.7891 163.757 84.8929 164.019 84.8929H174.113C173.625 84.0689 173.868 82.9565 174.67 82.1572H165.194C164.754 82.1572 164.323 82.2856 163.955 82.5262C163.586 82.767 163.296 83.1098 163.119 83.5127C163.061 83.6361 163.029 83.77 163.024 83.9062Z"
          fill="#755EC6"/>
    <path d="M174.111 84.8929H178.849C179.289 84.8933 179.718 84.766 180.087 84.5264C180.455 84.2869 180.746 83.9453 180.924 83.5436C180.98 83.4179 181.011 83.2818 181.012 83.144C181.012 83.0142 180.987 82.8859 180.938 82.766C180.888 82.6461 180.815 82.5373 180.724 82.4456C180.632 82.354 180.523 82.2812 180.403 82.2318C180.284 82.1822 180.155 82.1568 180.025 82.1572H174.667C173.864 82.9565 173.623 84.0751 174.111 84.8929Z"
          fill="#E6EFF9"/>
    <path d="M174.111 84.8929C174.132 84.9468 174.162 84.9975 174.198 85.0433C174.88 85.9867 176.367 86.0733 177.523 85.2307C177.663 85.129 177.794 85.0161 177.916 84.8929C178.709 84.0936 178.946 82.975 178.478 82.1572C178.452 82.1043 178.421 82.054 178.386 82.0068C177.698 81.0695 176.21 80.9768 175.055 81.8255C174.917 81.9255 174.787 82.0363 174.667 82.1572C173.864 82.9565 173.623 84.0751 174.111 84.8929Z"
          fill="white"/>
    <path d="M170.749 90.8875H176.791C177.231 90.8877 177.661 90.76 178.029 90.52C178.397 90.2802 178.688 89.9382 178.865 89.5361C178.922 89.4125 178.953 89.2784 178.954 89.1426C178.953 88.8792 178.848 88.627 178.661 88.441C178.475 88.255 178.222 88.1501 177.959 88.1497H171.311C171.785 88.9675 171.542 90.0861 170.749 90.8875Z"
          fill="#755EC6"/>
    <path d="M160.956 89.9048C160.957 90.1661 161.062 90.4163 161.247 90.6005C161.433 90.7849 161.683 90.8879 161.945 90.8875H170.749C171.542 90.0861 171.779 88.9675 171.312 88.1497H163.119C162.679 88.1497 162.248 88.2781 161.88 88.5187C161.512 88.7595 161.221 89.1023 161.045 89.5052C160.988 89.6309 160.958 89.7668 160.956 89.9048Z"
          fill="#E6EFF9"/>
    <path d="M166.936 90.8875C166.963 90.9396 166.995 90.9893 167.03 91.0358C167.71 91.9793 169.198 92.0658 170.355 91.2233C170.494 91.1207 170.626 91.0084 170.749 90.8875C171.542 90.0862 171.779 88.9676 171.311 88.1497C171.284 88.0968 171.252 88.0465 171.216 87.9994C170.53 87.0621 169.043 86.9817 167.885 87.8181C167.748 87.919 167.619 88.0299 167.498 88.1497C166.699 88.949 166.447 90.0738 166.936 90.8875Z"
          fill="white"/>
    <path d="M131.688 119.161H137.729C138.169 119.161 138.599 119.034 138.968 118.794C139.336 118.554 139.626 118.212 139.804 117.81C139.873 117.659 139.903 117.494 139.89 117.329C139.878 117.164 139.824 117.005 139.733 116.866C139.643 116.728 139.519 116.614 139.373 116.537C139.226 116.46 139.063 116.42 138.898 116.423H132.252C132.724 117.241 132.481 118.36 131.688 119.161Z"
          fill="#755EC6"/>
    <path d="M107.701 118.178C107.702 118.308 107.727 118.436 107.777 118.555C107.827 118.674 107.9 118.783 107.991 118.874C108.083 118.965 108.191 119.038 108.311 119.087C108.431 119.136 108.559 119.161 108.688 119.161H131.688C132.481 118.36 132.718 117.241 132.25 116.423H109.864C109.424 116.423 108.994 116.552 108.625 116.792C108.257 117.033 107.967 117.376 107.79 117.779C107.733 117.904 107.703 118.04 107.701 118.178Z"
          fill="#E6EFF9"/>
    <path d="M127.874 119.161C127.902 119.213 127.933 119.263 127.969 119.309C128.649 120.255 130.136 120.339 131.294 119.497C131.433 119.394 131.564 119.282 131.687 119.161C132.481 118.36 132.717 117.241 132.25 116.423C132.223 116.37 132.191 116.32 132.155 116.273C131.467 115.336 129.98 115.255 128.824 116.092C128.687 116.193 128.558 116.303 128.437 116.423C127.637 117.223 127.394 118.347 127.874 119.161Z"
          fill="white"/>
    <path d="M19.6117 148.833C18.8445 148.531 18.1026 148.168 17.393 147.748C12.6283 144.894 9.52384 138.496 10.4694 132.988C10.9411 130.254 12.721 128.349 15.0117 126.911C16.6123 125.918 18.3345 125.106 19.7641 123.88C24.5226 119.816 20.7158 113.494 23.3505 108.636C26.5538 102.745 31.7038 99.2902 38.4894 99.5147C41.7463 99.6219 45.9755 100.37 48.6349 97.9862C50.0316 96.7502 50.3241 94.7355 50.8536 93.0546C51.4503 91.159 51.9482 89.2337 52.345 87.2866C52.7018 85.4406 53.3734 83.67 54.3308 82.0521C55.367 80.297 56.8286 78.8313 58.5806 77.79C61.8766 75.8886 66.4725 75.7135 69.785 77.6684C70.2567 77.9488 70.7033 78.2693 71.1198 78.6263C74.1851 81.2549 75.6518 85.6818 75.5818 89.6288"
          stroke="#27262D" stroke-width="0.99292" stroke-miterlimit="10"/>
    <path d="M69.3559 84.7982C69.5269 85.96 70.2334 87.0312 71.488 87.3525C72.9053 87.713 73.6572 89.0932 74.0568 90.4796C74.6247 92.5137 74.4793 94.6806 73.6448 96.6205C72.8702 98.4456 71.49 100.534 69.1561 100.862C64.8857 101.48 62.7598 99.6714 62.7598 99.6714"
          stroke="#27262D" stroke-width="0.99292" stroke-miterlimit="10"/>
    <path d="M65.7988 91.0049C66.2038 91.0049 66.5321 90.6766 66.5321 90.2716C66.5321 89.8666 66.2038 89.5382 65.7988 89.5382C65.3936 89.5382 65.0654 89.8666 65.0654 90.2716C65.0654 90.6766 65.3936 91.0049 65.7988 91.0049Z"
          fill="#27262D"/>
    <path d="M72.248 90.5187C72.653 90.5187 72.9814 90.1906 72.9814 89.7854C72.9814 89.3804 72.653 89.052 72.248 89.052C71.843 89.052 71.5146 89.3804 71.5146 89.7854C71.5146 90.1906 71.843 90.5187 72.248 90.5187Z"
          fill="#27262D"/>
    <path d="M64.0967 145.14C65.1638 145.795 64.3027 146.874 63.5282 147.239C62.1974 147.857 60.4773 147.966 59.0271 148.139C47.9999 149.437 44.3187 164.574 37.3971 167.388C30.4755 170.202 11.9004 172.258 20.9603 140.785C27.9355 116.563 44.7533 109.957 51.7841 107.349C52.5409 107.071 53.2797 106.746 53.9965 106.377C58.0486 104.271 59.9458 102.018 60.5412 99.111C60.5412 99.111 60.5412 99.111 60.5412 99.0987C61.0562 96.604 60.7101 94.3133 60.2054 92.9887C59.916 92.2891 59.691 91.5644 59.5338 90.8237C59.1589 88.7163 60.7863 89.0129 65.3554 89.2642C67.4525 89.3878 68.639 88.4402 69.1499 87.2331C69.2 87.1284 69.2408 87.0195 69.2714 86.9076C69.4863 86.2241 69.5121 85.4951 69.3456 84.7982"
          stroke="#27262D" stroke-width="0.99292" stroke-miterlimit="10"/>
    <path d="M68.9588 90.4487C68.9588 90.4487 69.7292 93.2647 69.651 93.6808C69.5727 94.0969 68.5859 93.7756 68.5859 93.7756"
          stroke="#27262D" stroke-width="0.99292" stroke-miterlimit="10"/>
    <path d="M68.4274 96.3547C66.9504 97.1499 65.2426 96.6493 64.5752 95.3247" stroke="#27262D" stroke-width="0.99292"
          stroke-miterlimit="10"/>
    <path d="M66.9752 93.2682C68.3511 91.9694 68.4389 89.828 67.1714 88.4853C65.9038 87.1426 63.761 87.107 62.3852 88.4058C61.0093 89.7046 60.9215 91.846 62.189 93.1887C63.4566 94.5314 65.5994 94.5671 66.9752 93.2682Z"
          stroke="#27262D" stroke-width="0.99292" stroke-miterlimit="10"/>
    <path d="M75.5309 92.4871C76.9068 91.1882 76.9945 89.0469 75.727 87.7041C74.4595 86.3614 72.3167 86.3258 70.9408 87.6246C69.5649 88.9235 69.4772 91.0648 70.7447 92.4075C72.0122 93.7502 74.1552 93.7859 75.5309 92.4871Z"
          stroke="#27262D" stroke-width="0.99292" stroke-miterlimit="10"/>
    <path d="M73.3075 87.7068C73.8866 87.7031 74.4448 87.921 74.8682 88.3159C75.2915 88.7108 75.5475 89.2528 75.5838 89.8307C75.6209 90.46 75.4122 91.0788 75.0016 91.5574C74.5913 92.0357 74.0114 92.3362 73.3837 92.3954C73.3116 92.3954 73.2375 92.3954 73.1654 92.3954C72.5898 92.3995 72.0342 92.1844 71.6115 91.7938C71.1888 91.4031 70.9305 90.8662 70.8891 90.2921C70.8495 89.6611 71.0569 89.0396 71.4675 88.559C71.8783 88.0782 72.4598 87.7764 73.0891 87.7171C73.1612 87.7171 73.2354 87.7171 73.3075 87.7171V87.7068ZM73.3075 87.2207C73.221 87.2207 73.1324 87.2207 73.0438 87.233C72.288 87.3049 71.5893 87.6668 71.0949 88.2432C70.6005 88.8194 70.3487 89.5649 70.3926 90.323C70.4387 91.0259 70.7515 91.6849 71.2667 92.1653C71.7819 92.6457 72.461 92.9114 73.1654 92.9083C73.2519 92.9083 73.3405 92.9083 73.429 92.896C74.1853 92.8253 74.8842 92.4634 75.3786 91.8868C75.873 91.3102 76.1237 90.564 76.0782 89.806C76.0372 89.1 75.727 88.4365 75.2116 87.9522C74.6964 87.4678 74.0149 87.1994 73.3075 87.2021V87.2207Z"
          fill="white"/>
    <path d="M68.0605 90.5311L69.8569 90.3663" stroke="#27262D" stroke-width="0.99292" stroke-miterlimit="10"/>
    <path d="M64.7546 88.4216C65.3509 88.4158 65.9269 88.6394 66.3632 89.0462C66.7995 89.4529 67.063 90.0117 67.0988 90.6073C67.1374 91.2556 66.9227 91.8937 66.5 92.3867C66.0773 92.8799 65.4795 93.1895 64.8328 93.2502C64.7587 93.2502 64.6825 93.2502 64.6083 93.2502C64.0113 93.2556 63.4351 93.0317 62.9986 92.6246C62.5621 92.2174 62.2982 91.6583 62.262 91.0625C62.2239 90.4145 62.4387 89.7771 62.8614 89.2843C63.2841 88.7918 63.8817 88.4824 64.528 88.4216C64.6032 88.414 64.6788 88.4107 64.7546 88.4113V88.4216ZM64.7546 87.9149C64.6639 87.9149 64.5733 87.919 64.4827 87.9272C63.7036 87.9995 62.9836 88.3736 62.4764 88.9694C61.969 89.5651 61.7148 90.3354 61.7676 91.1161C61.8147 91.8363 62.1349 92.5115 62.6628 93.0037C63.1906 93.496 63.8865 93.7683 64.6083 93.7652C64.6969 93.7652 64.7875 93.7652 64.8782 93.7529C65.6536 93.68 66.3704 93.3085 66.877 92.7169C67.3835 92.1253 67.6404 91.36 67.5933 90.5825C67.5465 89.8624 67.2268 89.1873 66.6992 88.695C66.1716 88.2026 65.4762 87.9303 64.7546 87.9334V87.9149Z"
          fill="white"/>
    <path d="M75.2066 92.1427C76.3864 91.029 76.4607 89.1919 75.3729 88.0396C74.285 86.887 72.4466 86.8557 71.2669 87.9693C70.0873 89.0829 70.0127 90.9201 71.1006 92.0724C72.1885 93.225 74.0268 93.2563 75.2066 92.1427Z"
          fill="#755EC6"/>
    <path d="M67.2684 93.0439C68.4587 91.919 68.533 90.0652 67.4348 88.9033C66.3366 87.7413 64.4816 87.7114 63.2914 88.8364C62.1013 89.9611 62.0267 91.8151 63.1249 92.977C64.2233 94.1388 66.0783 94.1689 67.2684 93.0439Z"
          fill="#755EC6"/>
    <path d="M57.4184 110.052C56.512 109.106 55.7251 107.716 55.208 105.703" stroke="#27262D" stroke-width="0.99292"
          stroke-miterlimit="10"/>
    <path d="M65.7988 110.027L66.7979 105.703L67.8835 101.043" stroke="#27262D" stroke-width="0.99292"
          stroke-miterlimit="10"/>
    <path d="M69.8825 127.244C70.2665 125.36 69.2277 123.557 67.5622 123.218C65.8967 122.878 64.2353 124.131 63.8513 126.015C63.4673 127.899 64.5062 129.701 66.1717 130.04C67.8372 130.38 69.4986 129.128 69.8825 127.244Z"
          fill="#E6EFF9"/>
    <path d="M133.605 157.897L131.916 167.336C131.868 167.601 131.729 167.841 131.523 168.014C131.317 168.187 131.056 168.281 130.787 168.282H121.951C121.68 168.282 121.416 168.185 121.209 168.009C121.001 167.834 120.863 167.59 120.818 167.322L119.273 157.897H133.605Z"
          stroke="#E6EFF9" stroke-width="0.99292" stroke-miterlimit="10"/>
    <path d="M135.213 156.843C135.189 157.13 135.058 157.397 134.847 157.593C134.635 157.788 134.357 157.897 134.069 157.897H118.825C118.541 157.897 118.267 157.792 118.056 157.602C117.845 157.412 117.712 157.15 117.682 156.867C117.667 156.708 117.685 156.547 117.736 156.396C117.786 156.244 117.868 156.104 117.976 155.986C118.083 155.868 118.214 155.773 118.361 155.709C118.507 155.644 118.665 155.61 118.825 155.611H134.069C134.227 155.611 134.383 155.643 134.528 155.707C134.672 155.77 134.802 155.862 134.909 155.978C135.017 156.093 135.099 156.23 135.151 156.378C135.203 156.527 135.224 156.685 135.213 156.843Z"
          stroke="#E6EFF9" stroke-width="0.99292" stroke-miterlimit="10"/>
    <path d="M126.927 155.594C126.927 155.11 128.163 149.08 127.133 143.735C126.573 140.801 125.337 138.076 122.849 136.582"
          stroke="#E6EFF9" stroke-width="0.99292" stroke-miterlimit="10"/>
    <path d="M127.138 143.743C127.138 143.743 127.42 139.681 130.93 139.4" stroke="#E6EFF9" stroke-width="0.99292"
          stroke-miterlimit="10"/>
    <path d="M127.514 149.941C128.512 149.242 129.715 148.894 130.933 148.952" stroke="#E6EFF9" stroke-width="0.99292"
          stroke-miterlimit="10"/>
    <path d="M127.514 147.055C127.514 147.055 124.963 144.035 120.889 146.425" stroke="#E6EFF9" stroke-width="0.99292"
          stroke-miterlimit="10"/>
    <path d="M125.716 145.84C125.716 145.84 119.972 140.595 118.848 147.694C118.848 147.694 120.465 148.747 122.852 147.694C125.24 146.641 125.716 145.84 125.716 145.84Z"
          stroke="#E6EFF9" stroke-width="0.99292" stroke-miterlimit="10"/>
    <path d="M128.399 140.636C128.399 140.636 128.193 138.276 130.929 137.503C133.664 136.731 135.216 139.963 135.216 139.963C135.216 139.963 133.104 142.297 128.399 140.636Z"
          stroke="#E6EFF9" stroke-width="0.99292" stroke-miterlimit="10"/>
    <path d="M129.034 148.951C129.034 148.951 128.94 146.563 132.124 147.055C135.309 147.548 135.832 150.265 135.832 150.265C135.832 150.265 130.617 152.177 129.034 149.202"
          stroke="#E6EFF9" stroke-width="0.99292" stroke-miterlimit="10"/>
    <path d="M125.196 138.799C125.196 138.968 122.802 138.593 122.65 138.539C121.49 138.193 120.666 137.39 120.124 136.327C119.958 135.997 118.991 134.15 119.265 133.828C119.274 133.828 124.963 131.995 125.196 138.799Z"
          stroke="#E6EFF9" stroke-width="0.99292" stroke-miterlimit="10"/>
    <path d="M181.354 139.44C179.558 144.797 176.584 149.683 172.65 153.74C165.212 161.523 154.032 167.097 139.896 168.401V139.44H181.354Z"
          stroke="#E6EFF9" stroke-width="0.99292" stroke-miterlimit="10"/>
    <path d="M172.65 153.74C165.212 161.523 154.032 167.097 139.896 168.401V153.74H172.65Z" stroke="#E6EFF9"
          stroke-width="0.99292" stroke-miterlimit="10"/>
    <path d="M168.347 146.875C168.347 145.72 167.41 144.783 166.255 144.783C165.1 144.783 164.163 145.72 164.163 146.875C164.163 148.03 165.1 148.967 166.255 148.967C167.41 148.967 168.347 148.03 168.347 146.875Z"
          stroke="#E6EFF9" stroke-width="0.99292" stroke-miterlimit="10"/>
</svg>
